<?xml version="1.0" encoding="utf-8" standalone="no"?>
<!DOCTYPE svg PUBLIC "-//W3C//DTD SVG 1.1//EN"
  "http://www.w3.org/Graphics/SVG/1.1/DTD/svg11.dtd">
<svg xmlns:xlink="http://www.w3.org/1999/xlink" width="857.222428pt" height="568.569687pt" viewBox="0 0 857.222428 568.569687" xmlns="http://www.w3.org/2000/svg" version="1.1">
 <metadata>
  <rdf:RDF xmlns:dc="http://purl.org/dc/elements/1.1/" xmlns:cc="http://creativecommons.org/ns#" xmlns:rdf="http://www.w3.org/1999/02/22-rdf-syntax-ns#">
   <cc:Work>
    <dc:type rdf:resource="http://purl.org/dc/dcmitype/StillImage"/>
    <dc:date>2026-06-04T19:28:33.026788</dc:date>
    <dc:format>image/svg+xml</dc:format>
    <dc:creator>
     <cc:Agent>
      <dc:title>Matplotlib v3.9.4, https://matplotlib.org/</dc:title>
     </cc:Agent>
    </dc:creator>
   </cc:Work>
  </rdf:RDF>
 </metadata>
 <defs>
  <style type="text/css">*{stroke-linejoin: round; stroke-linecap: butt}</style>
 </defs>
 <g id="figure_1">
  <g id="patch_1">
   <path d="M 0 568.569687 
L 857.222428 568.569687 
L 857.222428 0 
L 0 0 
z
" style="fill: #ffffff"/>
  </g>
  <g id="axes_1">
   <g id="patch_2">
    <path d="M 47.5075 529.077812 
L 850.022428 529.077812 
L 850.022428 37.837812 
L 47.5075 37.837812 
z
" style="fill: #ffffff"/>
   </g>
   <g id="patch_3">
    <path d="M 47.5075 318.546384 
L 850.022428 318.546384 
L 850.022428 136.315337 
L 47.5075 136.315337 
z
" clip-path="url(#p73872a28cc)" style="fill: #ff0000; opacity: 0.15; stroke: #ff0000; stroke-linejoin: miter"/>
   </g>
   <g id="matplotlib.axis_1">
    <g id="xtick_1">
     <g id="line2d_1">
      <path d="M 47.5075 529.077812 
L 47.5075 37.837812 
" clip-path="url(#p73872a28cc)" style="fill: none; stroke: #b0b0b0; stroke-opacity: 0.3; stroke-width: 0.8; stroke-linecap: square"/>
     </g>
     <g id="line2d_2">
      <defs>
       <path id="mdc1eac6ee1" d="M 0 0 
L 0 3.5 
" style="stroke: #000000; stroke-width: 0.8"/>
      </defs>
      <g>
       <use xlink:href="#mdc1eac6ee1" x="47.5075" y="529.077812" style="stroke: #000000; stroke-width: 0.8"/>
      </g>
     </g>
     <g id="text_1">
      <!-- 0 -->
      <g transform="translate(44.32625 543.67625) scale(0.1 -0.1)">
       <defs>
        <path id="DejaVuSans-30" d="M 2034 4250 
Q 1547 4250 1301 3770 
Q 1056 3291 1056 2328 
Q 1056 1369 1301 889 
Q 1547 409 2034 409 
Q 2525 409 2770 889 
Q 3016 1369 3016 2328 
Q 3016 3291 2770 3770 
Q 2525 4250 2034 4250 
z
M 2034 4750 
Q 2819 4750 3233 4129 
Q 3647 3509 3647 2328 
Q 3647 1150 3233 529 
Q 2819 -91 2034 -91 
Q 1250 -91 836 529 
Q 422 1150 422 2328 
Q 422 3509 836 4129 
Q 1250 4750 2034 4750 
z
" transform="scale(0.015625)"/>
       </defs>
       <use xlink:href="#DejaVuSans-30"/>
      </g>
     </g>
    </g>
    <g id="xtick_2">
     <g id="line2d_3">
      <path d="M 201.837294 529.077812 
L 201.837294 37.837812 
" clip-path="url(#p73872a28cc)" style="fill: none; stroke: #b0b0b0; stroke-opacity: 0.3; stroke-width: 0.8; stroke-linecap: square"/>
     </g>
     <g id="line2d_4">
      <g>
       <use xlink:href="#mdc1eac6ee1" x="201.837294" y="529.077812" style="stroke: #000000; stroke-width: 0.8"/>
      </g>
     </g>
     <g id="text_2">
      <!-- 10 -->
      <g transform="translate(195.474794 543.67625) scale(0.1 -0.1)">
       <defs>
        <path id="DejaVuSans-31" d="M 794 531 
L 1825 531 
L 1825 4091 
L 703 3866 
L 703 4441 
L 1819 4666 
L 2450 4666 
L 2450 531 
L 3481 531 
L 3481 0 
L 794 0 
L 794 531 
z
" transform="scale(0.015625)"/>
       </defs>
       <use xlink:href="#DejaVuSans-31"/>
       <use xlink:href="#DejaVuSans-30" x="63.623047"/>
      </g>
     </g>
    </g>
    <g id="xtick_3">
     <g id="line2d_5">
      <path d="M 356.167088 529.077812 
L 356.167088 37.837812 
" clip-path="url(#p73872a28cc)" style="fill: none; stroke: #b0b0b0; stroke-opacity: 0.3; stroke-width: 0.8; stroke-linecap: square"/>
     </g>
     <g id="line2d_6">
      <g>
       <use xlink:href="#mdc1eac6ee1" x="356.167088" y="529.077812" style="stroke: #000000; stroke-width: 0.8"/>
      </g>
     </g>
     <g id="text_3">
      <!-- 20 -->
      <g transform="translate(349.804588 543.67625) scale(0.1 -0.1)">
       <defs>
        <path id="DejaVuSans-32" d="M 1228 531 
L 3431 531 
L 3431 0 
L 469 0 
L 469 531 
Q 828 903 1448 1529 
Q 2069 2156 2228 2338 
Q 2531 2678 2651 2914 
Q 2772 3150 2772 3378 
Q 2772 3750 2511 3984 
Q 2250 4219 1831 4219 
Q 1534 4219 1204 4116 
Q 875 4013 500 3803 
L 500 4441 
Q 881 4594 1212 4672 
Q 1544 4750 1819 4750 
Q 2544 4750 2975 4387 
Q 3406 4025 3406 3419 
Q 3406 3131 3298 2873 
Q 3191 2616 2906 2266 
Q 2828 2175 2409 1742 
Q 1991 1309 1228 531 
z
" transform="scale(0.015625)"/>
       </defs>
       <use xlink:href="#DejaVuSans-32"/>
       <use xlink:href="#DejaVuSans-30" x="63.623047"/>
      </g>
     </g>
    </g>
    <g id="xtick_4">
     <g id="line2d_7">
      <path d="M 510.496882 529.077812 
L 510.496882 37.837812 
" clip-path="url(#p73872a28cc)" style="fill: none; stroke: #b0b0b0; stroke-opacity: 0.3; stroke-width: 0.8; stroke-linecap: square"/>
     </g>
     <g id="line2d_8">
      <g>
       <use xlink:href="#mdc1eac6ee1" x="510.496882" y="529.077812" style="stroke: #000000; stroke-width: 0.8"/>
      </g>
     </g>
     <g id="text_4">
      <!-- 30 -->
      <g transform="translate(504.134382 543.67625) scale(0.1 -0.1)">
       <defs>
        <path id="DejaVuSans-33" d="M 2597 2516 
Q 3050 2419 3304 2112 
Q 3559 1806 3559 1356 
Q 3559 666 3084 287 
Q 2609 -91 1734 -91 
Q 1441 -91 1130 -33 
Q 819 25 488 141 
L 488 750 
Q 750 597 1062 519 
Q 1375 441 1716 441 
Q 2309 441 2620 675 
Q 2931 909 2931 1356 
Q 2931 1769 2642 2001 
Q 2353 2234 1838 2234 
L 1294 2234 
L 1294 2753 
L 1863 2753 
Q 2328 2753 2575 2939 
Q 2822 3125 2822 3475 
Q 2822 3834 2567 4026 
Q 2313 4219 1838 4219 
Q 1578 4219 1281 4162 
Q 984 4106 628 3988 
L 628 4550 
Q 988 4650 1302 4700 
Q 1616 4750 1894 4750 
Q 2613 4750 3031 4423 
Q 3450 4097 3450 3541 
Q 3450 3153 3228 2886 
Q 3006 2619 2597 2516 
z
" transform="scale(0.015625)"/>
       </defs>
       <use xlink:href="#DejaVuSans-33"/>
       <use xlink:href="#DejaVuSans-30" x="63.623047"/>
      </g>
     </g>
    </g>
    <g id="xtick_5">
     <g id="line2d_9">
      <path d="M 664.826676 529.077812 
L 664.826676 37.837812 
" clip-path="url(#p73872a28cc)" style="fill: none; stroke: #b0b0b0; stroke-opacity: 0.3; stroke-width: 0.8; stroke-linecap: square"/>
     </g>
     <g id="line2d_10">
      <g>
       <use xlink:href="#mdc1eac6ee1" x="664.826676" y="529.077812" style="stroke: #000000; stroke-width: 0.8"/>
      </g>
     </g>
     <g id="text_5">
      <!-- 40 -->
      <g transform="translate(658.464176 543.67625) scale(0.1 -0.1)">
       <defs>
        <path id="DejaVuSans-34" d="M 2419 4116 
L 825 1625 
L 2419 1625 
L 2419 4116 
z
M 2253 4666 
L 3047 4666 
L 3047 1625 
L 3713 1625 
L 3713 1100 
L 3047 1100 
L 3047 0 
L 2419 0 
L 2419 1100 
L 313 1100 
L 313 1709 
L 2253 4666 
z
" transform="scale(0.015625)"/>
       </defs>
       <use xlink:href="#DejaVuSans-34"/>
       <use xlink:href="#DejaVuSans-30" x="63.623047"/>
      </g>
     </g>
    </g>
    <g id="xtick_6">
     <g id="line2d_11">
      <path d="M 819.15647 529.077812 
L 819.15647 37.837812 
" clip-path="url(#p73872a28cc)" style="fill: none; stroke: #b0b0b0; stroke-opacity: 0.3; stroke-width: 0.8; stroke-linecap: square"/>
     </g>
     <g id="line2d_12">
      <g>
       <use xlink:href="#mdc1eac6ee1" x="819.15647" y="529.077812" style="stroke: #000000; stroke-width: 0.8"/>
      </g>
     </g>
     <g id="text_6">
      <!-- 50 -->
      <g transform="translate(812.79397 543.67625) scale(0.1 -0.1)">
       <defs>
        <path id="DejaVuSans-35" d="M 691 4666 
L 3169 4666 
L 3169 4134 
L 1269 4134 
L 1269 2991 
Q 1406 3038 1543 3061 
Q 1681 3084 1819 3084 
Q 2600 3084 3056 2656 
Q 3513 2228 3513 1497 
Q 3513 744 3044 326 
Q 2575 -91 1722 -91 
Q 1428 -91 1123 -41 
Q 819 9 494 109 
L 494 744 
Q 775 591 1075 516 
Q 1375 441 1709 441 
Q 2250 441 2565 725 
Q 2881 1009 2881 1497 
Q 2881 1984 2565 2268 
Q 2250 2553 1709 2553 
Q 1456 2553 1204 2497 
Q 953 2441 691 2322 
L 691 4666 
z
" transform="scale(0.015625)"/>
       </defs>
       <use xlink:href="#DejaVuSans-35"/>
       <use xlink:href="#DejaVuSans-30" x="63.623047"/>
      </g>
     </g>
    </g>
    <g id="text_7">
     <!-- Weeks Post-Transplant -->
     <g transform="translate(372.189027 558.874063) scale(0.12 -0.12)">
      <defs>
       <path id="DejaVuSans-Bold-57" d="M 191 4666 
L 1344 4666 
L 2150 1275 
L 2950 4666 
L 4109 4666 
L 4909 1275 
L 5716 4666 
L 6859 4666 
L 5759 0 
L 4372 0 
L 3525 3547 
L 2688 0 
L 1300 0 
L 191 4666 
z
" transform="scale(0.015625)"/>
       <path id="DejaVuSans-Bold-65" d="M 4031 1759 
L 4031 1441 
L 1416 1441 
Q 1456 1047 1700 850 
Q 1944 653 2381 653 
Q 2734 653 3104 758 
Q 3475 863 3866 1075 
L 3866 213 
Q 3469 63 3072 -14 
Q 2675 -91 2278 -91 
Q 1328 -91 801 392 
Q 275 875 275 1747 
Q 275 2603 792 3093 
Q 1309 3584 2216 3584 
Q 3041 3584 3536 3087 
Q 4031 2591 4031 1759 
z
M 2881 2131 
Q 2881 2450 2695 2645 
Q 2509 2841 2209 2841 
Q 1884 2841 1681 2658 
Q 1478 2475 1428 2131 
L 2881 2131 
z
" transform="scale(0.015625)"/>
       <path id="DejaVuSans-Bold-6b" d="M 538 4863 
L 1656 4863 
L 1656 2216 
L 2944 3500 
L 4244 3500 
L 2534 1894 
L 4378 0 
L 3022 0 
L 1656 1459 
L 1656 0 
L 538 0 
L 538 4863 
z
" transform="scale(0.015625)"/>
       <path id="DejaVuSans-Bold-73" d="M 3272 3391 
L 3272 2541 
Q 2913 2691 2578 2766 
Q 2244 2841 1947 2841 
Q 1628 2841 1473 2761 
Q 1319 2681 1319 2516 
Q 1319 2381 1436 2309 
Q 1553 2238 1856 2203 
L 2053 2175 
Q 2913 2066 3209 1816 
Q 3506 1566 3506 1031 
Q 3506 472 3093 190 
Q 2681 -91 1863 -91 
Q 1516 -91 1145 -36 
Q 775 19 384 128 
L 384 978 
Q 719 816 1070 734 
Q 1422 653 1784 653 
Q 2113 653 2278 743 
Q 2444 834 2444 1013 
Q 2444 1163 2330 1236 
Q 2216 1309 1875 1350 
L 1678 1375 
Q 931 1469 631 1722 
Q 331 1975 331 2491 
Q 331 3047 712 3315 
Q 1094 3584 1881 3584 
Q 2191 3584 2531 3537 
Q 2872 3491 3272 3391 
z
" transform="scale(0.015625)"/>
       <path id="DejaVuSans-Bold-20" transform="scale(0.015625)"/>
       <path id="DejaVuSans-Bold-50" d="M 588 4666 
L 2584 4666 
Q 3475 4666 3951 4270 
Q 4428 3875 4428 3144 
Q 4428 2409 3951 2014 
Q 3475 1619 2584 1619 
L 1791 1619 
L 1791 0 
L 588 0 
L 588 4666 
z
M 1791 3794 
L 1791 2491 
L 2456 2491 
Q 2806 2491 2997 2661 
Q 3188 2831 3188 3144 
Q 3188 3456 2997 3625 
Q 2806 3794 2456 3794 
L 1791 3794 
z
" transform="scale(0.015625)"/>
       <path id="DejaVuSans-Bold-6f" d="M 2203 2784 
Q 1831 2784 1636 2517 
Q 1441 2250 1441 1747 
Q 1441 1244 1636 976 
Q 1831 709 2203 709 
Q 2569 709 2762 976 
Q 2956 1244 2956 1747 
Q 2956 2250 2762 2517 
Q 2569 2784 2203 2784 
z
M 2203 3584 
Q 3106 3584 3614 3096 
Q 4122 2609 4122 1747 
Q 4122 884 3614 396 
Q 3106 -91 2203 -91 
Q 1297 -91 786 396 
Q 275 884 275 1747 
Q 275 2609 786 3096 
Q 1297 3584 2203 3584 
z
" transform="scale(0.015625)"/>
       <path id="DejaVuSans-Bold-74" d="M 1759 4494 
L 1759 3500 
L 2913 3500 
L 2913 2700 
L 1759 2700 
L 1759 1216 
Q 1759 972 1856 886 
Q 1953 800 2241 800 
L 2816 800 
L 2816 0 
L 1856 0 
Q 1194 0 917 276 
Q 641 553 641 1216 
L 641 2700 
L 84 2700 
L 84 3500 
L 641 3500 
L 641 4494 
L 1759 4494 
z
" transform="scale(0.015625)"/>
       <path id="DejaVuSans-Bold-2d" d="M 347 2297 
L 2309 2297 
L 2309 1388 
L 347 1388 
L 347 2297 
z
" transform="scale(0.015625)"/>
       <path id="DejaVuSans-Bold-54" d="M 31 4666 
L 4331 4666 
L 4331 3756 
L 2784 3756 
L 2784 0 
L 1581 0 
L 1581 3756 
L 31 3756 
L 31 4666 
z
" transform="scale(0.015625)"/>
       <path id="DejaVuSans-Bold-72" d="M 3138 2547 
Q 2991 2616 2845 2648 
Q 2700 2681 2553 2681 
Q 2122 2681 1889 2404 
Q 1656 2128 1656 1613 
L 1656 0 
L 538 0 
L 538 3500 
L 1656 3500 
L 1656 2925 
Q 1872 3269 2151 3426 
Q 2431 3584 2822 3584 
Q 2878 3584 2943 3579 
Q 3009 3575 3134 3559 
L 3138 2547 
z
" transform="scale(0.015625)"/>
       <path id="DejaVuSans-Bold-61" d="M 2106 1575 
Q 1756 1575 1579 1456 
Q 1403 1338 1403 1106 
Q 1403 894 1545 773 
Q 1688 653 1941 653 
Q 2256 653 2472 879 
Q 2688 1106 2688 1447 
L 2688 1575 
L 2106 1575 
z
M 3816 1997 
L 3816 0 
L 2688 0 
L 2688 519 
Q 2463 200 2181 54 
Q 1900 -91 1497 -91 
Q 953 -91 614 226 
Q 275 544 275 1050 
Q 275 1666 698 1953 
Q 1122 2241 2028 2241 
L 2688 2241 
L 2688 2328 
Q 2688 2594 2478 2717 
Q 2269 2841 1825 2841 
Q 1466 2841 1156 2769 
Q 847 2697 581 2553 
L 581 3406 
Q 941 3494 1303 3539 
Q 1666 3584 2028 3584 
Q 2975 3584 3395 3211 
Q 3816 2838 3816 1997 
z
" transform="scale(0.015625)"/>
       <path id="DejaVuSans-Bold-6e" d="M 4056 2131 
L 4056 0 
L 2931 0 
L 2931 347 
L 2931 1631 
Q 2931 2084 2911 2256 
Q 2891 2428 2841 2509 
Q 2775 2619 2662 2680 
Q 2550 2741 2406 2741 
Q 2056 2741 1856 2470 
Q 1656 2200 1656 1722 
L 1656 0 
L 538 0 
L 538 3500 
L 1656 3500 
L 1656 2988 
Q 1909 3294 2193 3439 
Q 2478 3584 2822 3584 
Q 3428 3584 3742 3212 
Q 4056 2841 4056 2131 
z
" transform="scale(0.015625)"/>
       <path id="DejaVuSans-Bold-70" d="M 1656 506 
L 1656 -1331 
L 538 -1331 
L 538 3500 
L 1656 3500 
L 1656 2988 
Q 1888 3294 2169 3439 
Q 2450 3584 2816 3584 
Q 3463 3584 3878 3070 
Q 4294 2556 4294 1747 
Q 4294 938 3878 423 
Q 3463 -91 2816 -91 
Q 2450 -91 2169 54 
Q 1888 200 1656 506 
z
M 2400 2772 
Q 2041 2772 1848 2508 
Q 1656 2244 1656 1747 
Q 1656 1250 1848 986 
Q 2041 722 2400 722 
Q 2759 722 2948 984 
Q 3138 1247 3138 1747 
Q 3138 2247 2948 2509 
Q 2759 2772 2400 2772 
z
" transform="scale(0.015625)"/>
       <path id="DejaVuSans-Bold-6c" d="M 538 4863 
L 1656 4863 
L 1656 0 
L 538 0 
L 538 4863 
z
" transform="scale(0.015625)"/>
      </defs>
      <use xlink:href="#DejaVuSans-Bold-57"/>
      <use xlink:href="#DejaVuSans-Bold-65" x="106.677734"/>
      <use xlink:href="#DejaVuSans-Bold-65" x="174.5"/>
      <use xlink:href="#DejaVuSans-Bold-6b" x="242.322266"/>
      <use xlink:href="#DejaVuSans-Bold-73" x="308.826172"/>
      <use xlink:href="#DejaVuSans-Bold-20" x="368.347656"/>
      <use xlink:href="#DejaVuSans-Bold-50" x="403.162109"/>
      <use xlink:href="#DejaVuSans-Bold-6f" x="476.453125"/>
      <use xlink:href="#DejaVuSans-Bold-73" x="545.154297"/>
      <use xlink:href="#DejaVuSans-Bold-74" x="604.675781"/>
      <use xlink:href="#DejaVuSans-Bold-2d" x="652.478516"/>
      <use xlink:href="#DejaVuSans-Bold-54" x="679.232422"/>
      <use xlink:href="#DejaVuSans-Bold-72" x="736.445312"/>
      <use xlink:href="#DejaVuSans-Bold-61" x="785.761719"/>
      <use xlink:href="#DejaVuSans-Bold-6e" x="853.242188"/>
      <use xlink:href="#DejaVuSans-Bold-73" x="924.433594"/>
      <use xlink:href="#DejaVuSans-Bold-70" x="983.955078"/>
      <use xlink:href="#DejaVuSans-Bold-6c" x="1055.537109"/>
      <use xlink:href="#DejaVuSans-Bold-61" x="1089.814453"/>
      <use xlink:href="#DejaVuSans-Bold-6e" x="1157.294922"/>
      <use xlink:href="#DejaVuSans-Bold-74" x="1228.486328"/>
     </g>
    </g>
   </g>
   <g id="matplotlib.axis_2">
    <g id="ytick_1">
     <g id="line2d_13">
      <path d="M 47.5075 529.077813 
L 850.022428 529.077813 
" clip-path="url(#p73872a28cc)" style="fill: none; stroke: #b0b0b0; stroke-opacity: 0.3; stroke-width: 0.8; stroke-linecap: square"/>
     </g>
     <g id="line2d_14">
      <defs>
       <path id="m09c0278ad7" d="M 0 0 
L -3.5 0 
" style="stroke: #000000; stroke-width: 0.8"/>
      </defs>
      <g>
       <use xlink:href="#m09c0278ad7" x="47.5075" y="529.077813" style="stroke: #000000; stroke-width: 0.8"/>
      </g>
     </g>
     <g id="text_8">
      <!-- $\mathdefault{10^{1}}$ -->
      <g transform="translate(22.9075 532.877031) scale(0.1 -0.1)">
       <use xlink:href="#DejaVuSans-31" transform="translate(0 0.684375)"/>
       <use xlink:href="#DejaVuSans-30" transform="translate(63.623047 0.684375)"/>
       <use xlink:href="#DejaVuSans-31" transform="translate(128.203125 38.965625) scale(0.7)"/>
      </g>
     </g>
    </g>
    <g id="ytick_2">
     <g id="line2d_15">
      <path d="M 47.5075 458.90067 
L 850.022428 458.90067 
" clip-path="url(#p73872a28cc)" style="fill: none; stroke: #b0b0b0; stroke-opacity: 0.3; stroke-width: 0.8; stroke-linecap: square"/>
     </g>
     <g id="line2d_16">
      <g>
       <use xlink:href="#m09c0278ad7" x="47.5075" y="458.90067" style="stroke: #000000; stroke-width: 0.8"/>
      </g>
     </g>
     <g id="text_9">
      <!-- $\mathdefault{10^{2}}$ -->
      <g transform="translate(22.9075 462.699888) scale(0.1 -0.1)">
       <use xlink:href="#DejaVuSans-31" transform="translate(0 0.765625)"/>
       <use xlink:href="#DejaVuSans-30" transform="translate(63.623047 0.765625)"/>
       <use xlink:href="#DejaVuSans-32" transform="translate(128.203125 39.046875) scale(0.7)"/>
      </g>
     </g>
    </g>
    <g id="ytick_3">
     <g id="line2d_17">
      <path d="M 47.5075 388.723527 
L 850.022428 388.723527 
" clip-path="url(#p73872a28cc)" style="fill: none; stroke: #b0b0b0; stroke-opacity: 0.3; stroke-width: 0.8; stroke-linecap: square"/>
     </g>
     <g id="line2d_18">
      <g>
       <use xlink:href="#m09c0278ad7" x="47.5075" y="388.723527" style="stroke: #000000; stroke-width: 0.8"/>
      </g>
     </g>
     <g id="text_10">
      <!-- $\mathdefault{10^{3}}$ -->
      <g transform="translate(22.9075 392.522746) scale(0.1 -0.1)">
       <use xlink:href="#DejaVuSans-31" transform="translate(0 0.765625)"/>
       <use xlink:href="#DejaVuSans-30" transform="translate(63.623047 0.765625)"/>
       <use xlink:href="#DejaVuSans-33" transform="translate(128.203125 39.046875) scale(0.7)"/>
      </g>
     </g>
    </g>
    <g id="ytick_4">
     <g id="line2d_19">
      <path d="M 47.5075 318.546384 
L 850.022428 318.546384 
" clip-path="url(#p73872a28cc)" style="fill: none; stroke: #b0b0b0; stroke-opacity: 0.3; stroke-width: 0.8; stroke-linecap: square"/>
     </g>
     <g id="line2d_20">
      <g>
       <use xlink:href="#m09c0278ad7" x="47.5075" y="318.546384" style="stroke: #000000; stroke-width: 0.8"/>
      </g>
     </g>
     <g id="text_11">
      <!-- $\mathdefault{10^{4}}$ -->
      <g transform="translate(22.9075 322.345603) scale(0.1 -0.1)">
       <use xlink:href="#DejaVuSans-31" transform="translate(0 0.684375)"/>
       <use xlink:href="#DejaVuSans-30" transform="translate(63.623047 0.684375)"/>
       <use xlink:href="#DejaVuSans-34" transform="translate(128.203125 38.965625) scale(0.7)"/>
      </g>
     </g>
    </g>
    <g id="ytick_5">
     <g id="line2d_21">
      <path d="M 47.5075 248.369241 
L 850.022428 248.369241 
" clip-path="url(#p73872a28cc)" style="fill: none; stroke: #b0b0b0; stroke-opacity: 0.3; stroke-width: 0.8; stroke-linecap: square"/>
     </g>
     <g id="line2d_22">
      <g>
       <use xlink:href="#m09c0278ad7" x="47.5075" y="248.369241" style="stroke: #000000; stroke-width: 0.8"/>
      </g>
     </g>
     <g id="text_12">
      <!-- $\mathdefault{10^{5}}$ -->
      <g transform="translate(22.9075 252.16846) scale(0.1 -0.1)">
       <use xlink:href="#DejaVuSans-31" transform="translate(0 0.684375)"/>
       <use xlink:href="#DejaVuSans-30" transform="translate(63.623047 0.684375)"/>
       <use xlink:href="#DejaVuSans-35" transform="translate(128.203125 38.965625) scale(0.7)"/>
      </g>
     </g>
    </g>
    <g id="ytick_6">
     <g id="line2d_23">
      <path d="M 47.5075 178.192098 
L 850.022428 178.192098 
" clip-path="url(#p73872a28cc)" style="fill: none; stroke: #b0b0b0; stroke-opacity: 0.3; stroke-width: 0.8; stroke-linecap: square"/>
     </g>
     <g id="line2d_24">
      <g>
       <use xlink:href="#m09c0278ad7" x="47.5075" y="178.192098" style="stroke: #000000; stroke-width: 0.8"/>
      </g>
     </g>
     <g id="text_13">
      <!-- $\mathdefault{10^{6}}$ -->
      <g transform="translate(22.9075 181.991317) scale(0.1 -0.1)">
       <defs>
        <path id="DejaVuSans-36" d="M 2113 2584 
Q 1688 2584 1439 2293 
Q 1191 2003 1191 1497 
Q 1191 994 1439 701 
Q 1688 409 2113 409 
Q 2538 409 2786 701 
Q 3034 994 3034 1497 
Q 3034 2003 2786 2293 
Q 2538 2584 2113 2584 
z
M 3366 4563 
L 3366 3988 
Q 3128 4100 2886 4159 
Q 2644 4219 2406 4219 
Q 1781 4219 1451 3797 
Q 1122 3375 1075 2522 
Q 1259 2794 1537 2939 
Q 1816 3084 2150 3084 
Q 2853 3084 3261 2657 
Q 3669 2231 3669 1497 
Q 3669 778 3244 343 
Q 2819 -91 2113 -91 
Q 1303 -91 875 529 
Q 447 1150 447 2328 
Q 447 3434 972 4092 
Q 1497 4750 2381 4750 
Q 2619 4750 2861 4703 
Q 3103 4656 3366 4563 
z
" transform="scale(0.015625)"/>
       </defs>
       <use xlink:href="#DejaVuSans-31" transform="translate(0 0.765625)"/>
       <use xlink:href="#DejaVuSans-30" transform="translate(63.623047 0.765625)"/>
       <use xlink:href="#DejaVuSans-36" transform="translate(128.203125 39.046875) scale(0.7)"/>
      </g>
     </g>
    </g>
    <g id="ytick_7">
     <g id="line2d_25">
      <path d="M 47.5075 108.014955 
L 850.022428 108.014955 
" clip-path="url(#p73872a28cc)" style="fill: none; stroke: #b0b0b0; stroke-opacity: 0.3; stroke-width: 0.8; stroke-linecap: square"/>
     </g>
     <g id="line2d_26">
      <g>
       <use xlink:href="#m09c0278ad7" x="47.5075" y="108.014955" style="stroke: #000000; stroke-width: 0.8"/>
      </g>
     </g>
     <g id="text_14">
      <!-- $\mathdefault{10^{7}}$ -->
      <g transform="translate(22.9075 111.814174) scale(0.1 -0.1)">
       <defs>
        <path id="DejaVuSans-37" d="M 525 4666 
L 3525 4666 
L 3525 4397 
L 1831 0 
L 1172 0 
L 2766 4134 
L 525 4134 
L 525 4666 
z
" transform="scale(0.015625)"/>
       </defs>
       <use xlink:href="#DejaVuSans-31" transform="translate(0 0.684375)"/>
       <use xlink:href="#DejaVuSans-30" transform="translate(63.623047 0.684375)"/>
       <use xlink:href="#DejaVuSans-37" transform="translate(128.203125 38.965625) scale(0.7)"/>
      </g>
     </g>
    </g>
    <g id="ytick_8">
     <g id="line2d_27">
      <path d="M 47.5075 37.837812 
L 850.022428 37.837812 
" clip-path="url(#p73872a28cc)" style="fill: none; stroke: #b0b0b0; stroke-opacity: 0.3; stroke-width: 0.8; stroke-linecap: square"/>
     </g>
     <g id="line2d_28">
      <g>
       <use xlink:href="#m09c0278ad7" x="47.5075" y="37.837812" style="stroke: #000000; stroke-width: 0.8"/>
      </g>
     </g>
     <g id="text_15">
      <!-- $\mathdefault{10^{8}}$ -->
      <g transform="translate(22.9075 41.637031) scale(0.1 -0.1)">
       <defs>
        <path id="DejaVuSans-38" d="M 2034 2216 
Q 1584 2216 1326 1975 
Q 1069 1734 1069 1313 
Q 1069 891 1326 650 
Q 1584 409 2034 409 
Q 2484 409 2743 651 
Q 3003 894 3003 1313 
Q 3003 1734 2745 1975 
Q 2488 2216 2034 2216 
z
M 1403 2484 
Q 997 2584 770 2862 
Q 544 3141 544 3541 
Q 544 4100 942 4425 
Q 1341 4750 2034 4750 
Q 2731 4750 3128 4425 
Q 3525 4100 3525 3541 
Q 3525 3141 3298 2862 
Q 3072 2584 2669 2484 
Q 3125 2378 3379 2068 
Q 3634 1759 3634 1313 
Q 3634 634 3220 271 
Q 2806 -91 2034 -91 
Q 1263 -91 848 271 
Q 434 634 434 1313 
Q 434 1759 690 2068 
Q 947 2378 1403 2484 
z
M 1172 3481 
Q 1172 3119 1398 2916 
Q 1625 2713 2034 2713 
Q 2441 2713 2670 2916 
Q 2900 3119 2900 3481 
Q 2900 3844 2670 4047 
Q 2441 4250 2034 4250 
Q 1625 4250 1398 4047 
Q 1172 3844 1172 3481 
z
" transform="scale(0.015625)"/>
       </defs>
       <use xlink:href="#DejaVuSans-31" transform="translate(0 0.765625)"/>
       <use xlink:href="#DejaVuSans-30" transform="translate(63.623047 0.765625)"/>
       <use xlink:href="#DejaVuSans-38" transform="translate(128.203125 39.046875) scale(0.7)"/>
      </g>
     </g>
    </g>
    <g id="ytick_9">
     <g id="line2d_29">
      <path d="M 47.5075 507.952387 
L 850.022428 507.952387 
" clip-path="url(#p73872a28cc)" style="fill: none; stroke: #b0b0b0; stroke-opacity: 0.3; stroke-width: 0.8; stroke-linecap: square"/>
     </g>
     <g id="line2d_30">
      <defs>
       <path id="mf903dc527f" d="M 0 0 
L -2 0 
" style="stroke: #000000; stroke-width: 0.6"/>
      </defs>
      <g>
       <use xlink:href="#mf903dc527f" x="47.5075" y="507.952387" style="stroke: #000000; stroke-width: 0.6"/>
      </g>
     </g>
    </g>
    <g id="ytick_10">
     <g id="line2d_31">
      <path d="M 47.5075 495.594806 
L 850.022428 495.594806 
" clip-path="url(#p73872a28cc)" style="fill: none; stroke: #b0b0b0; stroke-opacity: 0.3; stroke-width: 0.8; stroke-linecap: square"/>
     </g>
     <g id="line2d_32">
      <g>
       <use xlink:href="#mf903dc527f" x="47.5075" y="495.594806" style="stroke: #000000; stroke-width: 0.6"/>
      </g>
     </g>
    </g>
    <g id="ytick_11">
     <g id="line2d_33">
      <path d="M 47.5075 486.826962 
L 850.022428 486.826962 
" clip-path="url(#p73872a28cc)" style="fill: none; stroke: #b0b0b0; stroke-opacity: 0.3; stroke-width: 0.8; stroke-linecap: square"/>
     </g>
     <g id="line2d_34">
      <g>
       <use xlink:href="#mf903dc527f" x="47.5075" y="486.826962" style="stroke: #000000; stroke-width: 0.6"/>
      </g>
     </g>
    </g>
    <g id="ytick_12">
     <g id="line2d_35">
      <path d="M 47.5075 480.026095 
L 850.022428 480.026095 
" clip-path="url(#p73872a28cc)" style="fill: none; stroke: #b0b0b0; stroke-opacity: 0.3; stroke-width: 0.8; stroke-linecap: square"/>
     </g>
     <g id="line2d_36">
      <g>
       <use xlink:href="#mf903dc527f" x="47.5075" y="480.026095" style="stroke: #000000; stroke-width: 0.6"/>
      </g>
     </g>
    </g>
    <g id="ytick_13">
     <g id="line2d_37">
      <path d="M 47.5075 474.469381 
L 850.022428 474.469381 
" clip-path="url(#p73872a28cc)" style="fill: none; stroke: #b0b0b0; stroke-opacity: 0.3; stroke-width: 0.8; stroke-linecap: square"/>
     </g>
     <g id="line2d_38">
      <g>
       <use xlink:href="#mf903dc527f" x="47.5075" y="474.469381" style="stroke: #000000; stroke-width: 0.6"/>
      </g>
     </g>
    </g>
    <g id="ytick_14">
     <g id="line2d_39">
      <path d="M 47.5075 469.771247 
L 850.022428 469.771247 
" clip-path="url(#p73872a28cc)" style="fill: none; stroke: #b0b0b0; stroke-opacity: 0.3; stroke-width: 0.8; stroke-linecap: square"/>
     </g>
     <g id="line2d_40">
      <g>
       <use xlink:href="#mf903dc527f" x="47.5075" y="469.771247" style="stroke: #000000; stroke-width: 0.6"/>
      </g>
     </g>
    </g>
    <g id="ytick_15">
     <g id="line2d_41">
      <path d="M 47.5075 465.701537 
L 850.022428 465.701537 
" clip-path="url(#p73872a28cc)" style="fill: none; stroke: #b0b0b0; stroke-opacity: 0.3; stroke-width: 0.8; stroke-linecap: square"/>
     </g>
     <g id="line2d_42">
      <g>
       <use xlink:href="#mf903dc527f" x="47.5075" y="465.701537" style="stroke: #000000; stroke-width: 0.6"/>
      </g>
     </g>
    </g>
    <g id="ytick_16">
     <g id="line2d_43">
      <path d="M 47.5075 462.1118 
L 850.022428 462.1118 
" clip-path="url(#p73872a28cc)" style="fill: none; stroke: #b0b0b0; stroke-opacity: 0.3; stroke-width: 0.8; stroke-linecap: square"/>
     </g>
     <g id="line2d_44">
      <g>
       <use xlink:href="#mf903dc527f" x="47.5075" y="462.1118" style="stroke: #000000; stroke-width: 0.6"/>
      </g>
     </g>
    </g>
    <g id="ytick_17">
     <g id="line2d_45">
      <path d="M 47.5075 437.775245 
L 850.022428 437.775245 
" clip-path="url(#p73872a28cc)" style="fill: none; stroke: #b0b0b0; stroke-opacity: 0.3; stroke-width: 0.8; stroke-linecap: square"/>
     </g>
     <g id="line2d_46">
      <g>
       <use xlink:href="#mf903dc527f" x="47.5075" y="437.775245" style="stroke: #000000; stroke-width: 0.6"/>
      </g>
     </g>
    </g>
    <g id="ytick_18">
     <g id="line2d_47">
      <path d="M 47.5075 425.417663 
L 850.022428 425.417663 
" clip-path="url(#p73872a28cc)" style="fill: none; stroke: #b0b0b0; stroke-opacity: 0.3; stroke-width: 0.8; stroke-linecap: square"/>
     </g>
     <g id="line2d_48">
      <g>
       <use xlink:href="#mf903dc527f" x="47.5075" y="425.417663" style="stroke: #000000; stroke-width: 0.6"/>
      </g>
     </g>
    </g>
    <g id="ytick_19">
     <g id="line2d_49">
      <path d="M 47.5075 416.64982 
L 850.022428 416.64982 
" clip-path="url(#p73872a28cc)" style="fill: none; stroke: #b0b0b0; stroke-opacity: 0.3; stroke-width: 0.8; stroke-linecap: square"/>
     </g>
     <g id="line2d_50">
      <g>
       <use xlink:href="#mf903dc527f" x="47.5075" y="416.64982" style="stroke: #000000; stroke-width: 0.6"/>
      </g>
     </g>
    </g>
    <g id="ytick_20">
     <g id="line2d_51">
      <path d="M 47.5075 409.848952 
L 850.022428 409.848952 
" clip-path="url(#p73872a28cc)" style="fill: none; stroke: #b0b0b0; stroke-opacity: 0.3; stroke-width: 0.8; stroke-linecap: square"/>
     </g>
     <g id="line2d_52">
      <g>
       <use xlink:href="#mf903dc527f" x="47.5075" y="409.848952" style="stroke: #000000; stroke-width: 0.6"/>
      </g>
     </g>
    </g>
    <g id="ytick_21">
     <g id="line2d_53">
      <path d="M 47.5075 404.292238 
L 850.022428 404.292238 
" clip-path="url(#p73872a28cc)" style="fill: none; stroke: #b0b0b0; stroke-opacity: 0.3; stroke-width: 0.8; stroke-linecap: square"/>
     </g>
     <g id="line2d_54">
      <g>
       <use xlink:href="#mf903dc527f" x="47.5075" y="404.292238" style="stroke: #000000; stroke-width: 0.6"/>
      </g>
     </g>
    </g>
    <g id="ytick_22">
     <g id="line2d_55">
      <path d="M 47.5075 399.594104 
L 850.022428 399.594104 
" clip-path="url(#p73872a28cc)" style="fill: none; stroke: #b0b0b0; stroke-opacity: 0.3; stroke-width: 0.8; stroke-linecap: square"/>
     </g>
     <g id="line2d_56">
      <g>
       <use xlink:href="#mf903dc527f" x="47.5075" y="399.594104" style="stroke: #000000; stroke-width: 0.6"/>
      </g>
     </g>
    </g>
    <g id="ytick_23">
     <g id="line2d_57">
      <path d="M 47.5075 395.524395 
L 850.022428 395.524395 
" clip-path="url(#p73872a28cc)" style="fill: none; stroke: #b0b0b0; stroke-opacity: 0.3; stroke-width: 0.8; stroke-linecap: square"/>
     </g>
     <g id="line2d_58">
      <g>
       <use xlink:href="#mf903dc527f" x="47.5075" y="395.524395" style="stroke: #000000; stroke-width: 0.6"/>
      </g>
     </g>
    </g>
    <g id="ytick_24">
     <g id="line2d_59">
      <path d="M 47.5075 391.934657 
L 850.022428 391.934657 
" clip-path="url(#p73872a28cc)" style="fill: none; stroke: #b0b0b0; stroke-opacity: 0.3; stroke-width: 0.8; stroke-linecap: square"/>
     </g>
     <g id="line2d_60">
      <g>
       <use xlink:href="#mf903dc527f" x="47.5075" y="391.934657" style="stroke: #000000; stroke-width: 0.6"/>
      </g>
     </g>
    </g>
    <g id="ytick_25">
     <g id="line2d_61">
      <path d="M 47.5075 367.598102 
L 850.022428 367.598102 
" clip-path="url(#p73872a28cc)" style="fill: none; stroke: #b0b0b0; stroke-opacity: 0.3; stroke-width: 0.8; stroke-linecap: square"/>
     </g>
     <g id="line2d_62">
      <g>
       <use xlink:href="#mf903dc527f" x="47.5075" y="367.598102" style="stroke: #000000; stroke-width: 0.6"/>
      </g>
     </g>
    </g>
    <g id="ytick_26">
     <g id="line2d_63">
      <path d="M 47.5075 355.24052 
L 850.022428 355.24052 
" clip-path="url(#p73872a28cc)" style="fill: none; stroke: #b0b0b0; stroke-opacity: 0.3; stroke-width: 0.8; stroke-linecap: square"/>
     </g>
     <g id="line2d_64">
      <g>
       <use xlink:href="#mf903dc527f" x="47.5075" y="355.24052" style="stroke: #000000; stroke-width: 0.6"/>
      </g>
     </g>
    </g>
    <g id="ytick_27">
     <g id="line2d_65">
      <path d="M 47.5075 346.472677 
L 850.022428 346.472677 
" clip-path="url(#p73872a28cc)" style="fill: none; stroke: #b0b0b0; stroke-opacity: 0.3; stroke-width: 0.8; stroke-linecap: square"/>
     </g>
     <g id="line2d_66">
      <g>
       <use xlink:href="#mf903dc527f" x="47.5075" y="346.472677" style="stroke: #000000; stroke-width: 0.6"/>
      </g>
     </g>
    </g>
    <g id="ytick_28">
     <g id="line2d_67">
      <path d="M 47.5075 339.671809 
L 850.022428 339.671809 
" clip-path="url(#p73872a28cc)" style="fill: none; stroke: #b0b0b0; stroke-opacity: 0.3; stroke-width: 0.8; stroke-linecap: square"/>
     </g>
     <g id="line2d_68">
      <g>
       <use xlink:href="#mf903dc527f" x="47.5075" y="339.671809" style="stroke: #000000; stroke-width: 0.6"/>
      </g>
     </g>
    </g>
    <g id="ytick_29">
     <g id="line2d_69">
      <path d="M 47.5075 334.115095 
L 850.022428 334.115095 
" clip-path="url(#p73872a28cc)" style="fill: none; stroke: #b0b0b0; stroke-opacity: 0.3; stroke-width: 0.8; stroke-linecap: square"/>
     </g>
     <g id="line2d_70">
      <g>
       <use xlink:href="#mf903dc527f" x="47.5075" y="334.115095" style="stroke: #000000; stroke-width: 0.6"/>
      </g>
     </g>
    </g>
    <g id="ytick_30">
     <g id="line2d_71">
      <path d="M 47.5075 329.416961 
L 850.022428 329.416961 
" clip-path="url(#p73872a28cc)" style="fill: none; stroke: #b0b0b0; stroke-opacity: 0.3; stroke-width: 0.8; stroke-linecap: square"/>
     </g>
     <g id="line2d_72">
      <g>
       <use xlink:href="#mf903dc527f" x="47.5075" y="329.416961" style="stroke: #000000; stroke-width: 0.6"/>
      </g>
     </g>
    </g>
    <g id="ytick_31">
     <g id="line2d_73">
      <path d="M 47.5075 325.347252 
L 850.022428 325.347252 
" clip-path="url(#p73872a28cc)" style="fill: none; stroke: #b0b0b0; stroke-opacity: 0.3; stroke-width: 0.8; stroke-linecap: square"/>
     </g>
     <g id="line2d_74">
      <g>
       <use xlink:href="#mf903dc527f" x="47.5075" y="325.347252" style="stroke: #000000; stroke-width: 0.6"/>
      </g>
     </g>
    </g>
    <g id="ytick_32">
     <g id="line2d_75">
      <path d="M 47.5075 321.757514 
L 850.022428 321.757514 
" clip-path="url(#p73872a28cc)" style="fill: none; stroke: #b0b0b0; stroke-opacity: 0.3; stroke-width: 0.8; stroke-linecap: square"/>
     </g>
     <g id="line2d_76">
      <g>
       <use xlink:href="#mf903dc527f" x="47.5075" y="321.757514" style="stroke: #000000; stroke-width: 0.6"/>
      </g>
     </g>
    </g>
    <g id="ytick_33">
     <g id="line2d_77">
      <path d="M 47.5075 297.420959 
L 850.022428 297.420959 
" clip-path="url(#p73872a28cc)" style="fill: none; stroke: #b0b0b0; stroke-opacity: 0.3; stroke-width: 0.8; stroke-linecap: square"/>
     </g>
     <g id="line2d_78">
      <g>
       <use xlink:href="#mf903dc527f" x="47.5075" y="297.420959" style="stroke: #000000; stroke-width: 0.6"/>
      </g>
     </g>
    </g>
    <g id="ytick_34">
     <g id="line2d_79">
      <path d="M 47.5075 285.063377 
L 850.022428 285.063377 
" clip-path="url(#p73872a28cc)" style="fill: none; stroke: #b0b0b0; stroke-opacity: 0.3; stroke-width: 0.8; stroke-linecap: square"/>
     </g>
     <g id="line2d_80">
      <g>
       <use xlink:href="#mf903dc527f" x="47.5075" y="285.063377" style="stroke: #000000; stroke-width: 0.6"/>
      </g>
     </g>
    </g>
    <g id="ytick_35">
     <g id="line2d_81">
      <path d="M 47.5075 276.295534 
L 850.022428 276.295534 
" clip-path="url(#p73872a28cc)" style="fill: none; stroke: #b0b0b0; stroke-opacity: 0.3; stroke-width: 0.8; stroke-linecap: square"/>
     </g>
     <g id="line2d_82">
      <g>
       <use xlink:href="#mf903dc527f" x="47.5075" y="276.295534" style="stroke: #000000; stroke-width: 0.6"/>
      </g>
     </g>
    </g>
    <g id="ytick_36">
     <g id="line2d_83">
      <path d="M 47.5075 269.494666 
L 850.022428 269.494666 
" clip-path="url(#p73872a28cc)" style="fill: none; stroke: #b0b0b0; stroke-opacity: 0.3; stroke-width: 0.8; stroke-linecap: square"/>
     </g>
     <g id="line2d_84">
      <g>
       <use xlink:href="#mf903dc527f" x="47.5075" y="269.494666" style="stroke: #000000; stroke-width: 0.6"/>
      </g>
     </g>
    </g>
    <g id="ytick_37">
     <g id="line2d_85">
      <path d="M 47.5075 263.937952 
L 850.022428 263.937952 
" clip-path="url(#p73872a28cc)" style="fill: none; stroke: #b0b0b0; stroke-opacity: 0.3; stroke-width: 0.8; stroke-linecap: square"/>
     </g>
     <g id="line2d_86">
      <g>
       <use xlink:href="#mf903dc527f" x="47.5075" y="263.937952" style="stroke: #000000; stroke-width: 0.6"/>
      </g>
     </g>
    </g>
    <g id="ytick_38">
     <g id="line2d_87">
      <path d="M 47.5075 259.239818 
L 850.022428 259.239818 
" clip-path="url(#p73872a28cc)" style="fill: none; stroke: #b0b0b0; stroke-opacity: 0.3; stroke-width: 0.8; stroke-linecap: square"/>
     </g>
     <g id="line2d_88">
      <g>
       <use xlink:href="#mf903dc527f" x="47.5075" y="259.239818" style="stroke: #000000; stroke-width: 0.6"/>
      </g>
     </g>
    </g>
    <g id="ytick_39">
     <g id="line2d_89">
      <path d="M 47.5075 255.170109 
L 850.022428 255.170109 
" clip-path="url(#p73872a28cc)" style="fill: none; stroke: #b0b0b0; stroke-opacity: 0.3; stroke-width: 0.8; stroke-linecap: square"/>
     </g>
     <g id="line2d_90">
      <g>
       <use xlink:href="#mf903dc527f" x="47.5075" y="255.170109" style="stroke: #000000; stroke-width: 0.6"/>
      </g>
     </g>
    </g>
    <g id="ytick_40">
     <g id="line2d_91">
      <path d="M 47.5075 251.580371 
L 850.022428 251.580371 
" clip-path="url(#p73872a28cc)" style="fill: none; stroke: #b0b0b0; stroke-opacity: 0.3; stroke-width: 0.8; stroke-linecap: square"/>
     </g>
     <g id="line2d_92">
      <g>
       <use xlink:href="#mf903dc527f" x="47.5075" y="251.580371" style="stroke: #000000; stroke-width: 0.6"/>
      </g>
     </g>
    </g>
    <g id="ytick_41">
     <g id="line2d_93">
      <path d="M 47.5075 227.243816 
L 850.022428 227.243816 
" clip-path="url(#p73872a28cc)" style="fill: none; stroke: #b0b0b0; stroke-opacity: 0.3; stroke-width: 0.8; stroke-linecap: square"/>
     </g>
     <g id="line2d_94">
      <g>
       <use xlink:href="#mf903dc527f" x="47.5075" y="227.243816" style="stroke: #000000; stroke-width: 0.6"/>
      </g>
     </g>
    </g>
    <g id="ytick_42">
     <g id="line2d_95">
      <path d="M 47.5075 214.886235 
L 850.022428 214.886235 
" clip-path="url(#p73872a28cc)" style="fill: none; stroke: #b0b0b0; stroke-opacity: 0.3; stroke-width: 0.8; stroke-linecap: square"/>
     </g>
     <g id="line2d_96">
      <g>
       <use xlink:href="#mf903dc527f" x="47.5075" y="214.886235" style="stroke: #000000; stroke-width: 0.6"/>
      </g>
     </g>
    </g>
    <g id="ytick_43">
     <g id="line2d_97">
      <path d="M 47.5075 206.118391 
L 850.022428 206.118391 
" clip-path="url(#p73872a28cc)" style="fill: none; stroke: #b0b0b0; stroke-opacity: 0.3; stroke-width: 0.8; stroke-linecap: square"/>
     </g>
     <g id="line2d_98">
      <g>
       <use xlink:href="#mf903dc527f" x="47.5075" y="206.118391" style="stroke: #000000; stroke-width: 0.6"/>
      </g>
     </g>
    </g>
    <g id="ytick_44">
     <g id="line2d_99">
      <path d="M 47.5075 199.317523 
L 850.022428 199.317523 
" clip-path="url(#p73872a28cc)" style="fill: none; stroke: #b0b0b0; stroke-opacity: 0.3; stroke-width: 0.8; stroke-linecap: square"/>
     </g>
     <g id="line2d_100">
      <g>
       <use xlink:href="#mf903dc527f" x="47.5075" y="199.317523" style="stroke: #000000; stroke-width: 0.6"/>
      </g>
     </g>
    </g>
    <g id="ytick_45">
     <g id="line2d_101">
      <path d="M 47.5075 193.76081 
L 850.022428 193.76081 
" clip-path="url(#p73872a28cc)" style="fill: none; stroke: #b0b0b0; stroke-opacity: 0.3; stroke-width: 0.8; stroke-linecap: square"/>
     </g>
     <g id="line2d_102">
      <g>
       <use xlink:href="#mf903dc527f" x="47.5075" y="193.76081" style="stroke: #000000; stroke-width: 0.6"/>
      </g>
     </g>
    </g>
    <g id="ytick_46">
     <g id="line2d_103">
      <path d="M 47.5075 189.062675 
L 850.022428 189.062675 
" clip-path="url(#p73872a28cc)" style="fill: none; stroke: #b0b0b0; stroke-opacity: 0.3; stroke-width: 0.8; stroke-linecap: square"/>
     </g>
     <g id="line2d_104">
      <g>
       <use xlink:href="#mf903dc527f" x="47.5075" y="189.062675" style="stroke: #000000; stroke-width: 0.6"/>
      </g>
     </g>
    </g>
    <g id="ytick_47">
     <g id="line2d_105">
      <path d="M 47.5075 184.992966 
L 850.022428 184.992966 
" clip-path="url(#p73872a28cc)" style="fill: none; stroke: #b0b0b0; stroke-opacity: 0.3; stroke-width: 0.8; stroke-linecap: square"/>
     </g>
     <g id="line2d_106">
      <g>
       <use xlink:href="#mf903dc527f" x="47.5075" y="184.992966" style="stroke: #000000; stroke-width: 0.6"/>
      </g>
     </g>
    </g>
    <g id="ytick_48">
     <g id="line2d_107">
      <path d="M 47.5075 181.403228 
L 850.022428 181.403228 
" clip-path="url(#p73872a28cc)" style="fill: none; stroke: #b0b0b0; stroke-opacity: 0.3; stroke-width: 0.8; stroke-linecap: square"/>
     </g>
     <g id="line2d_108">
      <g>
       <use xlink:href="#mf903dc527f" x="47.5075" y="181.403228" style="stroke: #000000; stroke-width: 0.6"/>
      </g>
     </g>
    </g>
    <g id="ytick_49">
     <g id="line2d_109">
      <path d="M 47.5075 157.066673 
L 850.022428 157.066673 
" clip-path="url(#p73872a28cc)" style="fill: none; stroke: #b0b0b0; stroke-opacity: 0.3; stroke-width: 0.8; stroke-linecap: square"/>
     </g>
     <g id="line2d_110">
      <g>
       <use xlink:href="#mf903dc527f" x="47.5075" y="157.066673" style="stroke: #000000; stroke-width: 0.6"/>
      </g>
     </g>
    </g>
    <g id="ytick_50">
     <g id="line2d_111">
      <path d="M 47.5075 144.709092 
L 850.022428 144.709092 
" clip-path="url(#p73872a28cc)" style="fill: none; stroke: #b0b0b0; stroke-opacity: 0.3; stroke-width: 0.8; stroke-linecap: square"/>
     </g>
     <g id="line2d_112">
      <g>
       <use xlink:href="#mf903dc527f" x="47.5075" y="144.709092" style="stroke: #000000; stroke-width: 0.6"/>
      </g>
     </g>
    </g>
    <g id="ytick_51">
     <g id="line2d_113">
      <path d="M 47.5075 135.941248 
L 850.022428 135.941248 
" clip-path="url(#p73872a28cc)" style="fill: none; stroke: #b0b0b0; stroke-opacity: 0.3; stroke-width: 0.8; stroke-linecap: square"/>
     </g>
     <g id="line2d_114">
      <g>
       <use xlink:href="#mf903dc527f" x="47.5075" y="135.941248" style="stroke: #000000; stroke-width: 0.6"/>
      </g>
     </g>
    </g>
    <g id="ytick_52">
     <g id="line2d_115">
      <path d="M 47.5075 129.14038 
L 850.022428 129.14038 
" clip-path="url(#p73872a28cc)" style="fill: none; stroke: #b0b0b0; stroke-opacity: 0.3; stroke-width: 0.8; stroke-linecap: square"/>
     </g>
     <g id="line2d_116">
      <g>
       <use xlink:href="#mf903dc527f" x="47.5075" y="129.14038" style="stroke: #000000; stroke-width: 0.6"/>
      </g>
     </g>
    </g>
    <g id="ytick_53">
     <g id="line2d_117">
      <path d="M 47.5075 123.583667 
L 850.022428 123.583667 
" clip-path="url(#p73872a28cc)" style="fill: none; stroke: #b0b0b0; stroke-opacity: 0.3; stroke-width: 0.8; stroke-linecap: square"/>
     </g>
     <g id="line2d_118">
      <g>
       <use xlink:href="#mf903dc527f" x="47.5075" y="123.583667" style="stroke: #000000; stroke-width: 0.6"/>
      </g>
     </g>
    </g>
    <g id="ytick_54">
     <g id="line2d_119">
      <path d="M 47.5075 118.885532 
L 850.022428 118.885532 
" clip-path="url(#p73872a28cc)" style="fill: none; stroke: #b0b0b0; stroke-opacity: 0.3; stroke-width: 0.8; stroke-linecap: square"/>
     </g>
     <g id="line2d_120">
      <g>
       <use xlink:href="#mf903dc527f" x="47.5075" y="118.885532" style="stroke: #000000; stroke-width: 0.6"/>
      </g>
     </g>
    </g>
    <g id="ytick_55">
     <g id="line2d_121">
      <path d="M 47.5075 114.815823 
L 850.022428 114.815823 
" clip-path="url(#p73872a28cc)" style="fill: none; stroke: #b0b0b0; stroke-opacity: 0.3; stroke-width: 0.8; stroke-linecap: square"/>
     </g>
     <g id="line2d_122">
      <g>
       <use xlink:href="#mf903dc527f" x="47.5075" y="114.815823" style="stroke: #000000; stroke-width: 0.6"/>
      </g>
     </g>
    </g>
    <g id="ytick_56">
     <g id="line2d_123">
      <path d="M 47.5075 111.226085 
L 850.022428 111.226085 
" clip-path="url(#p73872a28cc)" style="fill: none; stroke: #b0b0b0; stroke-opacity: 0.3; stroke-width: 0.8; stroke-linecap: square"/>
     </g>
     <g id="line2d_124">
      <g>
       <use xlink:href="#mf903dc527f" x="47.5075" y="111.226085" style="stroke: #000000; stroke-width: 0.6"/>
      </g>
     </g>
    </g>
    <g id="ytick_57">
     <g id="line2d_125">
      <path d="M 47.5075 86.88953 
L 850.022428 86.88953 
" clip-path="url(#p73872a28cc)" style="fill: none; stroke: #b0b0b0; stroke-opacity: 0.3; stroke-width: 0.8; stroke-linecap: square"/>
     </g>
     <g id="line2d_126">
      <g>
       <use xlink:href="#mf903dc527f" x="47.5075" y="86.88953" style="stroke: #000000; stroke-width: 0.6"/>
      </g>
     </g>
    </g>
    <g id="ytick_58">
     <g id="line2d_127">
      <path d="M 47.5075 74.531949 
L 850.022428 74.531949 
" clip-path="url(#p73872a28cc)" style="fill: none; stroke: #b0b0b0; stroke-opacity: 0.3; stroke-width: 0.8; stroke-linecap: square"/>
     </g>
     <g id="line2d_128">
      <g>
       <use xlink:href="#mf903dc527f" x="47.5075" y="74.531949" style="stroke: #000000; stroke-width: 0.6"/>
      </g>
     </g>
    </g>
    <g id="ytick_59">
     <g id="line2d_129">
      <path d="M 47.5075 65.764105 
L 850.022428 65.764105 
" clip-path="url(#p73872a28cc)" style="fill: none; stroke: #b0b0b0; stroke-opacity: 0.3; stroke-width: 0.8; stroke-linecap: square"/>
     </g>
     <g id="line2d_130">
      <g>
       <use xlink:href="#mf903dc527f" x="47.5075" y="65.764105" style="stroke: #000000; stroke-width: 0.6"/>
      </g>
     </g>
    </g>
    <g id="ytick_60">
     <g id="line2d_131">
      <path d="M 47.5075 58.963238 
L 850.022428 58.963238 
" clip-path="url(#p73872a28cc)" style="fill: none; stroke: #b0b0b0; stroke-opacity: 0.3; stroke-width: 0.8; stroke-linecap: square"/>
     </g>
     <g id="line2d_132">
      <g>
       <use xlink:href="#mf903dc527f" x="47.5075" y="58.963238" style="stroke: #000000; stroke-width: 0.6"/>
      </g>
     </g>
    </g>
    <g id="ytick_61">
     <g id="line2d_133">
      <path d="M 47.5075 53.406524 
L 850.022428 53.406524 
" clip-path="url(#p73872a28cc)" style="fill: none; stroke: #b0b0b0; stroke-opacity: 0.3; stroke-width: 0.8; stroke-linecap: square"/>
     </g>
     <g id="line2d_134">
      <g>
       <use xlink:href="#mf903dc527f" x="47.5075" y="53.406524" style="stroke: #000000; stroke-width: 0.6"/>
      </g>
     </g>
    </g>
    <g id="ytick_62">
     <g id="line2d_135">
      <path d="M 47.5075 48.708389 
L 850.022428 48.708389 
" clip-path="url(#p73872a28cc)" style="fill: none; stroke: #b0b0b0; stroke-opacity: 0.3; stroke-width: 0.8; stroke-linecap: square"/>
     </g>
     <g id="line2d_136">
      <g>
       <use xlink:href="#mf903dc527f" x="47.5075" y="48.708389" style="stroke: #000000; stroke-width: 0.6"/>
      </g>
     </g>
    </g>
    <g id="ytick_63">
     <g id="line2d_137">
      <path d="M 47.5075 44.63868 
L 850.022428 44.63868 
" clip-path="url(#p73872a28cc)" style="fill: none; stroke: #b0b0b0; stroke-opacity: 0.3; stroke-width: 0.8; stroke-linecap: square"/>
     </g>
     <g id="line2d_138">
      <g>
       <use xlink:href="#mf903dc527f" x="47.5075" y="44.63868" style="stroke: #000000; stroke-width: 0.6"/>
      </g>
     </g>
    </g>
    <g id="ytick_64">
     <g id="line2d_139">
      <path d="M 47.5075 41.048942 
L 850.022428 41.048942 
" clip-path="url(#p73872a28cc)" style="fill: none; stroke: #b0b0b0; stroke-opacity: 0.3; stroke-width: 0.8; stroke-linecap: square"/>
     </g>
     <g id="line2d_140">
      <g>
       <use xlink:href="#mf903dc527f" x="47.5075" y="41.048942" style="stroke: #000000; stroke-width: 0.6"/>
      </g>
     </g>
    </g>
    <g id="text_16">
     <!-- Plasma BKPyV DNA (copies/mL) -->
     <g transform="translate(16.318125 390.455625) rotate(-90) scale(0.12 -0.12)">
      <defs>
       <path id="DejaVuSans-Bold-6d" d="M 3781 2919 
Q 3994 3244 4286 3414 
Q 4578 3584 4928 3584 
Q 5531 3584 5847 3212 
Q 6163 2841 6163 2131 
L 6163 0 
L 5038 0 
L 5038 1825 
Q 5041 1866 5042 1909 
Q 5044 1953 5044 2034 
Q 5044 2406 4934 2573 
Q 4825 2741 4581 2741 
Q 4263 2741 4089 2478 
Q 3916 2216 3909 1719 
L 3909 0 
L 2784 0 
L 2784 1825 
Q 2784 2406 2684 2573 
Q 2584 2741 2328 2741 
Q 2006 2741 1831 2477 
Q 1656 2213 1656 1722 
L 1656 0 
L 531 0 
L 531 3500 
L 1656 3500 
L 1656 2988 
Q 1863 3284 2130 3434 
Q 2397 3584 2719 3584 
Q 3081 3584 3359 3409 
Q 3638 3234 3781 2919 
z
" transform="scale(0.015625)"/>
       <path id="DejaVuSans-Bold-42" d="M 2456 2859 
Q 2741 2859 2887 2984 
Q 3034 3109 3034 3353 
Q 3034 3594 2887 3720 
Q 2741 3847 2456 3847 
L 1791 3847 
L 1791 2859 
L 2456 2859 
z
M 2497 819 
Q 2859 819 3042 972 
Q 3225 1125 3225 1434 
Q 3225 1738 3044 1889 
Q 2863 2041 2497 2041 
L 1791 2041 
L 1791 819 
L 2497 819 
z
M 3616 2497 
Q 4003 2384 4215 2081 
Q 4428 1778 4428 1338 
Q 4428 663 3972 331 
Q 3516 0 2584 0 
L 588 0 
L 588 4666 
L 2394 4666 
Q 3366 4666 3802 4372 
Q 4238 4078 4238 3431 
Q 4238 3091 4078 2852 
Q 3919 2613 3616 2497 
z
" transform="scale(0.015625)"/>
       <path id="DejaVuSans-Bold-4b" d="M 588 4666 
L 1791 4666 
L 1791 2963 
L 3525 4666 
L 4922 4666 
L 2675 2456 
L 5153 0 
L 3647 0 
L 1791 1838 
L 1791 0 
L 588 0 
L 588 4666 
z
" transform="scale(0.015625)"/>
       <path id="DejaVuSans-Bold-79" d="M 78 3500 
L 1197 3500 
L 2138 1125 
L 2938 3500 
L 4056 3500 
L 2584 -331 
Q 2363 -916 2067 -1148 
Q 1772 -1381 1288 -1381 
L 641 -1381 
L 641 -647 
L 991 -647 
Q 1275 -647 1404 -556 
Q 1534 -466 1606 -231 
L 1638 -134 
L 78 3500 
z
" transform="scale(0.015625)"/>
       <path id="DejaVuSans-Bold-56" d="M 31 4666 
L 1241 4666 
L 2478 1222 
L 3713 4666 
L 4922 4666 
L 3194 0 
L 1759 0 
L 31 4666 
z
" transform="scale(0.015625)"/>
       <path id="DejaVuSans-Bold-44" d="M 1791 3756 
L 1791 909 
L 2222 909 
Q 2959 909 3348 1275 
Q 3738 1641 3738 2338 
Q 3738 3031 3350 3393 
Q 2963 3756 2222 3756 
L 1791 3756 
z
M 588 4666 
L 1856 4666 
Q 2919 4666 3439 4514 
Q 3959 4363 4331 4000 
Q 4659 3684 4818 3271 
Q 4978 2859 4978 2338 
Q 4978 1809 4818 1395 
Q 4659 981 4331 666 
Q 3956 303 3431 151 
Q 2906 0 1856 0 
L 588 0 
L 588 4666 
z
" transform="scale(0.015625)"/>
       <path id="DejaVuSans-Bold-4e" d="M 588 4666 
L 1931 4666 
L 3628 1466 
L 3628 4666 
L 4769 4666 
L 4769 0 
L 3425 0 
L 1728 3200 
L 1728 0 
L 588 0 
L 588 4666 
z
" transform="scale(0.015625)"/>
       <path id="DejaVuSans-Bold-41" d="M 3419 850 
L 1538 850 
L 1241 0 
L 31 0 
L 1759 4666 
L 3194 4666 
L 4922 0 
L 3713 0 
L 3419 850 
z
M 1838 1716 
L 3116 1716 
L 2478 3572 
L 1838 1716 
z
" transform="scale(0.015625)"/>
       <path id="DejaVuSans-Bold-28" d="M 2413 -844 
L 1484 -844 
Q 1006 -72 778 623 
Q 550 1319 550 2003 
Q 550 2688 779 3389 
Q 1009 4091 1484 4856 
L 2413 4856 
Q 2013 4116 1813 3408 
Q 1613 2700 1613 2009 
Q 1613 1319 1811 609 
Q 2009 -100 2413 -844 
z
" transform="scale(0.015625)"/>
       <path id="DejaVuSans-Bold-63" d="M 3366 3391 
L 3366 2478 
Q 3138 2634 2908 2709 
Q 2678 2784 2431 2784 
Q 1963 2784 1702 2511 
Q 1441 2238 1441 1747 
Q 1441 1256 1702 982 
Q 1963 709 2431 709 
Q 2694 709 2930 787 
Q 3166 866 3366 1019 
L 3366 103 
Q 3103 6 2833 -42 
Q 2563 -91 2291 -91 
Q 1344 -91 809 395 
Q 275 881 275 1747 
Q 275 2613 809 3098 
Q 1344 3584 2291 3584 
Q 2566 3584 2833 3536 
Q 3100 3488 3366 3391 
z
" transform="scale(0.015625)"/>
       <path id="DejaVuSans-Bold-69" d="M 538 3500 
L 1656 3500 
L 1656 0 
L 538 0 
L 538 3500 
z
M 538 4863 
L 1656 4863 
L 1656 3950 
L 538 3950 
L 538 4863 
z
" transform="scale(0.015625)"/>
       <path id="DejaVuSans-Bold-2f" d="M 1644 4666 
L 2338 4666 
L 691 -594 
L 0 -594 
L 1644 4666 
z
" transform="scale(0.015625)"/>
       <path id="DejaVuSans-Bold-4c" d="M 588 4666 
L 1791 4666 
L 1791 909 
L 3903 909 
L 3903 0 
L 588 0 
L 588 4666 
z
" transform="scale(0.015625)"/>
       <path id="DejaVuSans-Bold-29" d="M 513 -844 
Q 913 -100 1113 609 
Q 1313 1319 1313 2009 
Q 1313 2700 1113 3408 
Q 913 4116 513 4856 
L 1441 4856 
Q 1916 4091 2145 3389 
Q 2375 2688 2375 2003 
Q 2375 1319 2147 623 
Q 1919 -72 1441 -844 
L 513 -844 
z
" transform="scale(0.015625)"/>
      </defs>
      <use xlink:href="#DejaVuSans-Bold-50"/>
      <use xlink:href="#DejaVuSans-Bold-6c" x="73.291016"/>
      <use xlink:href="#DejaVuSans-Bold-61" x="107.568359"/>
      <use xlink:href="#DejaVuSans-Bold-73" x="175.048828"/>
      <use xlink:href="#DejaVuSans-Bold-6d" x="234.570312"/>
      <use xlink:href="#DejaVuSans-Bold-61" x="338.769531"/>
      <use xlink:href="#DejaVuSans-Bold-20" x="406.25"/>
      <use xlink:href="#DejaVuSans-Bold-42" x="441.064453"/>
      <use xlink:href="#DejaVuSans-Bold-4b" x="517.285156"/>
      <use xlink:href="#DejaVuSans-Bold-50" x="594.775391"/>
      <use xlink:href="#DejaVuSans-Bold-79" x="669.941406"/>
      <use xlink:href="#DejaVuSans-Bold-56" x="735.126953"/>
      <use xlink:href="#DejaVuSans-Bold-20" x="812.519531"/>
      <use xlink:href="#DejaVuSans-Bold-44" x="847.333984"/>
      <use xlink:href="#DejaVuSans-Bold-4e" x="930.341797"/>
      <use xlink:href="#DejaVuSans-Bold-41" x="1014.033203"/>
      <use xlink:href="#DejaVuSans-Bold-20" x="1091.425781"/>
      <use xlink:href="#DejaVuSans-Bold-28" x="1126.240234"/>
      <use xlink:href="#DejaVuSans-Bold-63" x="1171.943359"/>
      <use xlink:href="#DejaVuSans-Bold-6f" x="1231.220703"/>
      <use xlink:href="#DejaVuSans-Bold-70" x="1299.921875"/>
      <use xlink:href="#DejaVuSans-Bold-69" x="1371.503906"/>
      <use xlink:href="#DejaVuSans-Bold-65" x="1405.78125"/>
      <use xlink:href="#DejaVuSans-Bold-73" x="1473.603516"/>
      <use xlink:href="#DejaVuSans-Bold-2f" x="1533.125"/>
      <use xlink:href="#DejaVuSans-Bold-6d" x="1569.648438"/>
      <use xlink:href="#DejaVuSans-Bold-4c" x="1673.847656"/>
      <use xlink:href="#DejaVuSans-Bold-29" x="1737.568359"/>
     </g>
    </g>
   </g>
   <g id="line2d_141">
    <path clip-path="url(#p73872a28cc)" style="fill: none; stroke: #2ecc71; stroke-opacity: 0.8; stroke-width: 2.5; stroke-linecap: square"/>
   </g>
   <g id="line2d_142">
    <path d="M 68.807499 569.569687 
L 78.373459 507.800621 
L 93.806438 451.905502 
L 109.239418 413.878667 
L 124.672397 385.606944 
L 140.105376 363.476932 
L 155.538356 345.561455 
L 170.971335 330.710401 
L 186.404315 318.182085 
L 201.837294 307.470204 
L 217.270273 298.213714 
L 232.703253 217.363938 
L 248.136232 223.306264 
L 263.569211 229.275782 
L 279.002191 235.26775 
L 294.43517 241.278223 
L 309.86815 247.303934 
L 325.301129 253.342177 
L 340.734108 259.390721 
L 356.167088 265.447725 
L 371.600067 271.511672 
L 387.033047 277.581316 
L 402.466026 283.655632 
L 417.899005 289.733779 
L 433.331985 295.815065 
L 448.764964 301.898925 
L 464.197944 307.984894 
L 479.630923 314.072589 
L 495.063902 320.161699 
L 510.496882 326.251969 
L 525.929861 332.343187 
L 541.362841 338.435183 
L 556.79582 344.527815 
L 572.228799 350.620969 
L 587.661779 356.714549 
L 603.094758 362.808479 
L 618.527737 368.902695 
L 633.960717 374.997146 
L 649.393696 381.091788 
L 664.826676 387.186588 
L 680.259655 393.281516 
L 695.692634 399.376549 
L 711.125614 405.471669 
L 726.558593 411.566859 
L 741.991573 417.662108 
L 757.424552 423.757403 
L 772.857531 429.852737 
L 788.290511 435.948103 
L 803.72349 442.043495 
L 819.15647 448.138908 
L 834.589449 454.234339 
L 850.022428 460.329783 
" clip-path="url(#p73872a28cc)" style="fill: none; stroke: #3498db; stroke-opacity: 0.8; stroke-width: 2.5; stroke-linecap: square"/>
   </g>
   <g id="line2d_143">
    <path d="M 62.91546 569.569687 
L 62.940479 455.568406 
L 78.373459 358.818203 
L 93.806438 305.755382 
L 109.239418 270.522596 
L 124.672397 245.036856 
L 140.105376 225.704153 
L 155.538356 210.602981 
L 170.971335 198.57637 
L 186.404315 188.866747 
L 201.837294 137.802341 
L 217.270273 140.233706 
L 232.703253 142.772991 
L 248.136232 145.415803 
L 263.569211 148.157256 
L 279.002191 150.992089 
L 294.43517 153.91478 
L 309.86815 156.919662 
L 325.301129 160.001017 
L 340.734108 163.15317 
L 356.167088 166.370563 
L 371.600067 169.647816 
L 387.033047 172.979781 
L 402.466026 176.361568 
L 417.899005 179.78858 
L 433.331985 183.25652 
L 448.764964 186.7614 
L 464.197944 190.299542 
L 479.630923 193.867565 
L 495.063902 197.462381 
L 510.496882 201.08118 
L 525.929861 204.72141 
L 541.362841 208.380766 
L 556.79582 212.057168 
L 572.228799 215.748747 
L 587.661779 219.453822 
L 603.094758 223.170891 
L 618.527737 226.89861 
L 633.960717 230.635777 
L 649.393696 234.381322 
L 664.826676 238.134293 
L 680.259655 241.89384 
L 695.692634 245.659212 
L 711.125614 249.429738 
L 726.558593 253.204824 
L 741.991573 256.983944 
L 757.424552 260.766631 
L 772.857531 264.552471 
L 788.290511 268.341099 
L 803.72349 272.13219 
L 819.15647 275.925457 
L 834.589449 279.720647 
L 850.022428 283.517535 
" clip-path="url(#p73872a28cc)" style="fill: none; stroke: #e74c3c; stroke-opacity: 0.8; stroke-width: 2.5; stroke-linecap: square"/>
   </g>
   <g id="line2d_144">
    <path d="M 88.051253 569.569687 
L 93.806438 547.919174 
L 109.239418 507.778636 
L 124.672397 477.441353 
L 140.105376 453.29329 
L 155.538356 433.406654 
L 170.971335 416.630771 
L 186.404315 402.22347 
L 201.837294 389.678041 
L 217.270273 378.633099 
L 232.703253 368.821842 
L 248.136232 360.041685 
L 263.569211 247.846741 
L 279.002191 256.909541 
L 294.43517 265.993058 
L 309.86815 275.091984 
L 325.301129 284.202361 
L 340.734108 293.321238 
L 356.167088 302.446423 
L 371.600067 311.576287 
L 387.033047 320.709621 
L 402.466026 329.845525 
L 417.899005 338.983336 
L 433.331985 348.12256 
L 448.764964 357.262831 
L 464.197944 366.403877 
L 479.630923 375.545497 
L 495.063902 384.687544 
L 510.496882 393.829906 
L 525.929861 402.972502 
L 541.362841 412.11527 
L 556.79582 421.258167 
L 572.228799 430.40116 
L 587.661779 439.544222 
L 603.094758 448.687337 
L 618.527737 457.83049 
L 633.960717 466.973672 
L 649.393696 476.116875 
L 664.826676 485.260094 
L 680.259655 494.403325 
L 695.692634 503.546564 
L 711.125614 512.689809 
L 726.558593 521.83306 
L 741.991573 530.976313 
L 757.424552 540.11957 
L 772.857531 549.262828 
L 788.290511 558.406088 
L 803.72349 567.549348 
L 807.133636 569.569687 
" clip-path="url(#p73872a28cc)" style="fill: none; stroke: #9b59b6; stroke-opacity: 0.8; stroke-width: 2.5; stroke-linecap: square"/>
   </g>
   <g id="line2d_145">
    <path d="M 47.5075 388.723527 
L 850.022428 388.723527 
" clip-path="url(#p73872a28cc)" style="fill: none; stroke-dasharray: 7.4,3.2; stroke-dashoffset: 0; stroke: #ffa500; stroke-opacity: 0.7; stroke-width: 2"/>
   </g>
   <g id="line2d_146">
    <path d="M 47.5075 318.546384 
L 850.022428 318.546384 
" clip-path="url(#p73872a28cc)" style="fill: none; stroke-dasharray: 7.4,3.2; stroke-dashoffset: 0; stroke: #ff0000; stroke-opacity: 0.7; stroke-width: 2"/>
   </g>
   <g id="patch_4">
    <path d="M 47.5075 529.077813 
L 47.5075 37.837812 
" style="fill: none; stroke: #000000; stroke-width: 0.8; stroke-linejoin: miter; stroke-linecap: square"/>
   </g>
   <g id="patch_5">
    <path d="M 850.022428 529.077813 
L 850.022428 37.837812 
" style="fill: none; stroke: #000000; stroke-width: 0.8; stroke-linejoin: miter; stroke-linecap: square"/>
   </g>
   <g id="patch_6">
    <path d="M 47.5075 529.077812 
L 850.022428 529.077812 
" style="fill: none; stroke: #000000; stroke-width: 0.8; stroke-linejoin: miter; stroke-linecap: square"/>
   </g>
   <g id="patch_7">
    <path d="M 47.5075 37.837812 
L 850.022428 37.837812 
" style="fill: none; stroke: #000000; stroke-width: 0.8; stroke-linejoin: miter; stroke-linecap: square"/>
   </g>
   <g id="patch_8">
    <path d="M 275.027918 149.249303 
Q 239.422091 143.680577 205.473173 138.37099 
" style="fill: none; stroke: #ff0000; stroke-width: 1.5; stroke-linecap: round"/>
    <path d="M 209.116089 140.965053 
L 205.473173 138.37099 
L 209.734173 137.013094 
" style="fill: none; stroke: #ff0000; stroke-width: 1.5; stroke-linecap: round"/>
   </g>
   <g id="text_17">
    <!-- Tacrolimus peak -->
    <g style="fill: #ff0000" transform="translate(279.002191 158.927766) scale(0.1 -0.1)">
     <defs>
      <path id="DejaVuSans-54" d="M -19 4666 
L 3928 4666 
L 3928 4134 
L 2272 4134 
L 2272 0 
L 1638 0 
L 1638 4134 
L -19 4134 
L -19 4666 
z
" transform="scale(0.015625)"/>
      <path id="DejaVuSans-61" d="M 2194 1759 
Q 1497 1759 1228 1600 
Q 959 1441 959 1056 
Q 959 750 1161 570 
Q 1363 391 1709 391 
Q 2188 391 2477 730 
Q 2766 1069 2766 1631 
L 2766 1759 
L 2194 1759 
z
M 3341 1997 
L 3341 0 
L 2766 0 
L 2766 531 
Q 2569 213 2275 61 
Q 1981 -91 1556 -91 
Q 1019 -91 701 211 
Q 384 513 384 1019 
Q 384 1609 779 1909 
Q 1175 2209 1959 2209 
L 2766 2209 
L 2766 2266 
Q 2766 2663 2505 2880 
Q 2244 3097 1772 3097 
Q 1472 3097 1187 3025 
Q 903 2953 641 2809 
L 641 3341 
Q 956 3463 1253 3523 
Q 1550 3584 1831 3584 
Q 2591 3584 2966 3190 
Q 3341 2797 3341 1997 
z
" transform="scale(0.015625)"/>
      <path id="DejaVuSans-63" d="M 3122 3366 
L 3122 2828 
Q 2878 2963 2633 3030 
Q 2388 3097 2138 3097 
Q 1578 3097 1268 2742 
Q 959 2388 959 1747 
Q 959 1106 1268 751 
Q 1578 397 2138 397 
Q 2388 397 2633 464 
Q 2878 531 3122 666 
L 3122 134 
Q 2881 22 2623 -34 
Q 2366 -91 2075 -91 
Q 1284 -91 818 406 
Q 353 903 353 1747 
Q 353 2603 823 3093 
Q 1294 3584 2113 3584 
Q 2378 3584 2631 3529 
Q 2884 3475 3122 3366 
z
" transform="scale(0.015625)"/>
      <path id="DejaVuSans-72" d="M 2631 2963 
Q 2534 3019 2420 3045 
Q 2306 3072 2169 3072 
Q 1681 3072 1420 2755 
Q 1159 2438 1159 1844 
L 1159 0 
L 581 0 
L 581 3500 
L 1159 3500 
L 1159 2956 
Q 1341 3275 1631 3429 
Q 1922 3584 2338 3584 
Q 2397 3584 2469 3576 
Q 2541 3569 2628 3553 
L 2631 2963 
z
" transform="scale(0.015625)"/>
      <path id="DejaVuSans-6f" d="M 1959 3097 
Q 1497 3097 1228 2736 
Q 959 2375 959 1747 
Q 959 1119 1226 758 
Q 1494 397 1959 397 
Q 2419 397 2687 759 
Q 2956 1122 2956 1747 
Q 2956 2369 2687 2733 
Q 2419 3097 1959 3097 
z
M 1959 3584 
Q 2709 3584 3137 3096 
Q 3566 2609 3566 1747 
Q 3566 888 3137 398 
Q 2709 -91 1959 -91 
Q 1206 -91 779 398 
Q 353 888 353 1747 
Q 353 2609 779 3096 
Q 1206 3584 1959 3584 
z
" transform="scale(0.015625)"/>
      <path id="DejaVuSans-6c" d="M 603 4863 
L 1178 4863 
L 1178 0 
L 603 0 
L 603 4863 
z
" transform="scale(0.015625)"/>
      <path id="DejaVuSans-69" d="M 603 3500 
L 1178 3500 
L 1178 0 
L 603 0 
L 603 3500 
z
M 603 4863 
L 1178 4863 
L 1178 4134 
L 603 4134 
L 603 4863 
z
" transform="scale(0.015625)"/>
      <path id="DejaVuSans-6d" d="M 3328 2828 
Q 3544 3216 3844 3400 
Q 4144 3584 4550 3584 
Q 5097 3584 5394 3201 
Q 5691 2819 5691 2113 
L 5691 0 
L 5113 0 
L 5113 2094 
Q 5113 2597 4934 2840 
Q 4756 3084 4391 3084 
Q 3944 3084 3684 2787 
Q 3425 2491 3425 1978 
L 3425 0 
L 2847 0 
L 2847 2094 
Q 2847 2600 2669 2842 
Q 2491 3084 2119 3084 
Q 1678 3084 1418 2786 
Q 1159 2488 1159 1978 
L 1159 0 
L 581 0 
L 581 3500 
L 1159 3500 
L 1159 2956 
Q 1356 3278 1631 3431 
Q 1906 3584 2284 3584 
Q 2666 3584 2933 3390 
Q 3200 3197 3328 2828 
z
" transform="scale(0.015625)"/>
      <path id="DejaVuSans-75" d="M 544 1381 
L 544 3500 
L 1119 3500 
L 1119 1403 
Q 1119 906 1312 657 
Q 1506 409 1894 409 
Q 2359 409 2629 706 
Q 2900 1003 2900 1516 
L 2900 3500 
L 3475 3500 
L 3475 0 
L 2900 0 
L 2900 538 
Q 2691 219 2414 64 
Q 2138 -91 1772 -91 
Q 1169 -91 856 284 
Q 544 659 544 1381 
z
M 1991 3584 
L 1991 3584 
z
" transform="scale(0.015625)"/>
      <path id="DejaVuSans-73" d="M 2834 3397 
L 2834 2853 
Q 2591 2978 2328 3040 
Q 2066 3103 1784 3103 
Q 1356 3103 1142 2972 
Q 928 2841 928 2578 
Q 928 2378 1081 2264 
Q 1234 2150 1697 2047 
L 1894 2003 
Q 2506 1872 2764 1633 
Q 3022 1394 3022 966 
Q 3022 478 2636 193 
Q 2250 -91 1575 -91 
Q 1294 -91 989 -36 
Q 684 19 347 128 
L 347 722 
Q 666 556 975 473 
Q 1284 391 1588 391 
Q 1994 391 2212 530 
Q 2431 669 2431 922 
Q 2431 1156 2273 1281 
Q 2116 1406 1581 1522 
L 1381 1569 
Q 847 1681 609 1914 
Q 372 2147 372 2553 
Q 372 3047 722 3315 
Q 1072 3584 1716 3584 
Q 2034 3584 2315 3537 
Q 2597 3491 2834 3397 
z
" transform="scale(0.015625)"/>
      <path id="DejaVuSans-20" transform="scale(0.015625)"/>
      <path id="DejaVuSans-70" d="M 1159 525 
L 1159 -1331 
L 581 -1331 
L 581 3500 
L 1159 3500 
L 1159 2969 
Q 1341 3281 1617 3432 
Q 1894 3584 2278 3584 
Q 2916 3584 3314 3078 
Q 3713 2572 3713 1747 
Q 3713 922 3314 415 
Q 2916 -91 2278 -91 
Q 1894 -91 1617 61 
Q 1341 213 1159 525 
z
M 3116 1747 
Q 3116 2381 2855 2742 
Q 2594 3103 2138 3103 
Q 1681 3103 1420 2742 
Q 1159 2381 1159 1747 
Q 1159 1113 1420 752 
Q 1681 391 2138 391 
Q 2594 391 2855 752 
Q 3116 1113 3116 1747 
z
" transform="scale(0.015625)"/>
      <path id="DejaVuSans-65" d="M 3597 1894 
L 3597 1613 
L 953 1613 
Q 991 1019 1311 708 
Q 1631 397 2203 397 
Q 2534 397 2845 478 
Q 3156 559 3463 722 
L 3463 178 
Q 3153 47 2828 -22 
Q 2503 -91 2169 -91 
Q 1331 -91 842 396 
Q 353 884 353 1716 
Q 353 2575 817 3079 
Q 1281 3584 2069 3584 
Q 2775 3584 3186 3129 
Q 3597 2675 3597 1894 
z
M 3022 2063 
Q 3016 2534 2758 2815 
Q 2500 3097 2075 3097 
Q 1594 3097 1305 2825 
Q 1016 2553 972 2059 
L 3022 2063 
z
" transform="scale(0.015625)"/>
      <path id="DejaVuSans-6b" d="M 581 4863 
L 1159 4863 
L 1159 1991 
L 2875 3500 
L 3609 3500 
L 1753 1863 
L 3688 0 
L 2938 0 
L 1159 1709 
L 1159 0 
L 581 0 
L 581 4863 
z
" transform="scale(0.015625)"/>
     </defs>
     <use xlink:href="#DejaVuSans-54"/>
     <use xlink:href="#DejaVuSans-61" x="44.583984"/>
     <use xlink:href="#DejaVuSans-63" x="105.863281"/>
     <use xlink:href="#DejaVuSans-72" x="160.84375"/>
     <use xlink:href="#DejaVuSans-6f" x="199.707031"/>
     <use xlink:href="#DejaVuSans-6c" x="260.888672"/>
     <use xlink:href="#DejaVuSans-69" x="288.671875"/>
     <use xlink:href="#DejaVuSans-6d" x="316.455078"/>
     <use xlink:href="#DejaVuSans-75" x="413.867188"/>
     <use xlink:href="#DejaVuSans-73" x="477.246094"/>
     <use xlink:href="#DejaVuSans-20" x="529.345703"/>
     <use xlink:href="#DejaVuSans-70" x="561.132812"/>
     <use xlink:href="#DejaVuSans-65" x="624.609375"/>
     <use xlink:href="#DejaVuSans-61" x="686.132812"/>
     <use xlink:href="#DejaVuSans-6b" x="747.412109"/>
    </g>
   </g>
   <g id="patch_9">
    <path d="M 178.728094 203.795036 
Q 220.261871 225.360448 260.307268 246.153055 
" style="fill: none; stroke: #800080; stroke-width: 1.5; stroke-linecap: round"/>
    <path d="M 257.6789 242.534812 
L 260.307268 246.153055 
L 255.835653 246.084804 
" style="fill: none; stroke: #800080; stroke-width: 1.5; stroke-linecap: round"/>
   </g>
   <g id="text_18">
    <!-- Sirolimus suppression -->
    <g style="fill: #800080" transform="translate(109.239418 198.795023) scale(0.1 -0.1)">
     <defs>
      <path id="DejaVuSans-53" d="M 3425 4513 
L 3425 3897 
Q 3066 4069 2747 4153 
Q 2428 4238 2131 4238 
Q 1616 4238 1336 4038 
Q 1056 3838 1056 3469 
Q 1056 3159 1242 3001 
Q 1428 2844 1947 2747 
L 2328 2669 
Q 3034 2534 3370 2195 
Q 3706 1856 3706 1288 
Q 3706 609 3251 259 
Q 2797 -91 1919 -91 
Q 1588 -91 1214 -16 
Q 841 59 441 206 
L 441 856 
Q 825 641 1194 531 
Q 1563 422 1919 422 
Q 2459 422 2753 634 
Q 3047 847 3047 1241 
Q 3047 1584 2836 1778 
Q 2625 1972 2144 2069 
L 1759 2144 
Q 1053 2284 737 2584 
Q 422 2884 422 3419 
Q 422 4038 858 4394 
Q 1294 4750 2059 4750 
Q 2388 4750 2728 4690 
Q 3069 4631 3425 4513 
z
" transform="scale(0.015625)"/>
      <path id="DejaVuSans-6e" d="M 3513 2113 
L 3513 0 
L 2938 0 
L 2938 2094 
Q 2938 2591 2744 2837 
Q 2550 3084 2163 3084 
Q 1697 3084 1428 2787 
Q 1159 2491 1159 1978 
L 1159 0 
L 581 0 
L 581 3500 
L 1159 3500 
L 1159 2956 
Q 1366 3272 1645 3428 
Q 1925 3584 2291 3584 
Q 2894 3584 3203 3211 
Q 3513 2838 3513 2113 
z
" transform="scale(0.015625)"/>
     </defs>
     <use xlink:href="#DejaVuSans-53"/>
     <use xlink:href="#DejaVuSans-69" x="63.476562"/>
     <use xlink:href="#DejaVuSans-72" x="91.259766"/>
     <use xlink:href="#DejaVuSans-6f" x="130.123047"/>
     <use xlink:href="#DejaVuSans-6c" x="191.304688"/>
     <use xlink:href="#DejaVuSans-69" x="219.087891"/>
     <use xlink:href="#DejaVuSans-6d" x="246.871094"/>
     <use xlink:href="#DejaVuSans-75" x="344.283203"/>
     <use xlink:href="#DejaVuSans-73" x="407.662109"/>
     <use xlink:href="#DejaVuSans-20" x="459.761719"/>
     <use xlink:href="#DejaVuSans-73" x="491.548828"/>
     <use xlink:href="#DejaVuSans-75" x="543.648438"/>
     <use xlink:href="#DejaVuSans-70" x="607.027344"/>
     <use xlink:href="#DejaVuSans-70" x="670.503906"/>
     <use xlink:href="#DejaVuSans-72" x="733.980469"/>
     <use xlink:href="#DejaVuSans-65" x="772.84375"/>
     <use xlink:href="#DejaVuSans-73" x="834.367188"/>
     <use xlink:href="#DejaVuSans-73" x="886.466797"/>
     <use xlink:href="#DejaVuSans-69" x="938.566406"/>
     <use xlink:href="#DejaVuSans-6f" x="966.349609"/>
     <use xlink:href="#DejaVuSans-6e" x="1027.53125"/>
    </g>
   </g>
   <g id="text_19">
    <!-- Simulated BKPyV Plasma Viral Load Under Different Immunosuppression Regimens -->
    <g transform="translate(119.552777 17.837812) scale(0.14 -0.14)">
     <defs>
      <path id="DejaVuSans-Bold-53" d="M 3834 4519 
L 3834 3531 
Q 3450 3703 3084 3790 
Q 2719 3878 2394 3878 
Q 1963 3878 1756 3759 
Q 1550 3641 1550 3391 
Q 1550 3203 1689 3098 
Q 1828 2994 2194 2919 
L 2706 2816 
Q 3484 2659 3812 2340 
Q 4141 2022 4141 1434 
Q 4141 663 3683 286 
Q 3225 -91 2284 -91 
Q 1841 -91 1394 -6 
Q 947 78 500 244 
L 500 1259 
Q 947 1022 1364 901 
Q 1781 781 2169 781 
Q 2563 781 2772 912 
Q 2981 1044 2981 1288 
Q 2981 1506 2839 1625 
Q 2697 1744 2272 1838 
L 1806 1941 
Q 1106 2091 782 2419 
Q 459 2747 459 3303 
Q 459 4000 909 4375 
Q 1359 4750 2203 4750 
Q 2588 4750 2994 4692 
Q 3400 4634 3834 4519 
z
" transform="scale(0.015625)"/>
      <path id="DejaVuSans-Bold-75" d="M 500 1363 
L 500 3500 
L 1625 3500 
L 1625 3150 
Q 1625 2866 1622 2436 
Q 1619 2006 1619 1863 
Q 1619 1441 1641 1255 
Q 1663 1069 1716 984 
Q 1784 875 1895 815 
Q 2006 756 2150 756 
Q 2500 756 2700 1025 
Q 2900 1294 2900 1772 
L 2900 3500 
L 4019 3500 
L 4019 0 
L 2900 0 
L 2900 506 
Q 2647 200 2364 54 
Q 2081 -91 1741 -91 
Q 1134 -91 817 281 
Q 500 653 500 1363 
z
" transform="scale(0.015625)"/>
      <path id="DejaVuSans-Bold-64" d="M 2919 2988 
L 2919 4863 
L 4044 4863 
L 4044 0 
L 2919 0 
L 2919 506 
Q 2688 197 2409 53 
Q 2131 -91 1766 -91 
Q 1119 -91 703 423 
Q 288 938 288 1747 
Q 288 2556 703 3070 
Q 1119 3584 1766 3584 
Q 2128 3584 2408 3439 
Q 2688 3294 2919 2988 
z
M 2181 722 
Q 2541 722 2730 984 
Q 2919 1247 2919 1747 
Q 2919 2247 2730 2509 
Q 2541 2772 2181 2772 
Q 1825 2772 1636 2509 
Q 1447 2247 1447 1747 
Q 1447 1247 1636 984 
Q 1825 722 2181 722 
z
" transform="scale(0.015625)"/>
      <path id="DejaVuSans-Bold-55" d="M 588 4666 
L 1791 4666 
L 1791 1869 
Q 1791 1291 1980 1042 
Q 2169 794 2597 794 
Q 3028 794 3217 1042 
Q 3406 1291 3406 1869 
L 3406 4666 
L 4609 4666 
L 4609 1869 
Q 4609 878 4112 393 
Q 3616 -91 2597 -91 
Q 1581 -91 1084 393 
Q 588 878 588 1869 
L 588 4666 
z
" transform="scale(0.015625)"/>
      <path id="DejaVuSans-Bold-66" d="M 2841 4863 
L 2841 4128 
L 2222 4128 
Q 1984 4128 1890 4042 
Q 1797 3956 1797 3744 
L 1797 3500 
L 2753 3500 
L 2753 2700 
L 1797 2700 
L 1797 0 
L 678 0 
L 678 2700 
L 122 2700 
L 122 3500 
L 678 3500 
L 678 3744 
Q 678 4316 997 4589 
Q 1316 4863 1984 4863 
L 2841 4863 
z
" transform="scale(0.015625)"/>
      <path id="DejaVuSans-Bold-49" d="M 588 4666 
L 1791 4666 
L 1791 0 
L 588 0 
L 588 4666 
z
" transform="scale(0.015625)"/>
      <path id="DejaVuSans-Bold-52" d="M 2297 2597 
Q 2675 2597 2839 2737 
Q 3003 2878 3003 3200 
Q 3003 3519 2839 3656 
Q 2675 3794 2297 3794 
L 1791 3794 
L 1791 2597 
L 2297 2597 
z
M 1791 1766 
L 1791 0 
L 588 0 
L 588 4666 
L 2425 4666 
Q 3347 4666 3776 4356 
Q 4206 4047 4206 3378 
Q 4206 2916 3982 2619 
Q 3759 2322 3309 2181 
Q 3556 2125 3751 1926 
Q 3947 1728 4147 1325 
L 4800 0 
L 3519 0 
L 2950 1159 
Q 2778 1509 2601 1637 
Q 2425 1766 2131 1766 
L 1791 1766 
z
" transform="scale(0.015625)"/>
      <path id="DejaVuSans-Bold-67" d="M 2919 594 
Q 2688 288 2409 144 
Q 2131 0 1766 0 
Q 1125 0 706 504 
Q 288 1009 288 1791 
Q 288 2575 706 3076 
Q 1125 3578 1766 3578 
Q 2131 3578 2409 3434 
Q 2688 3291 2919 2981 
L 2919 3500 
L 4044 3500 
L 4044 353 
Q 4044 -491 3511 -936 
Q 2978 -1381 1966 -1381 
Q 1638 -1381 1331 -1331 
Q 1025 -1281 716 -1178 
L 716 -306 
Q 1009 -475 1290 -558 
Q 1572 -641 1856 -641 
Q 2406 -641 2662 -400 
Q 2919 -159 2919 353 
L 2919 594 
z
M 2181 2772 
Q 1834 2772 1640 2515 
Q 1447 2259 1447 1791 
Q 1447 1309 1634 1061 
Q 1822 813 2181 813 
Q 2531 813 2725 1069 
Q 2919 1325 2919 1791 
Q 2919 2259 2725 2515 
Q 2531 2772 2181 2772 
z
" transform="scale(0.015625)"/>
     </defs>
     <use xlink:href="#DejaVuSans-Bold-53"/>
     <use xlink:href="#DejaVuSans-Bold-69" x="72.021484"/>
     <use xlink:href="#DejaVuSans-Bold-6d" x="106.298828"/>
     <use xlink:href="#DejaVuSans-Bold-75" x="210.498047"/>
     <use xlink:href="#DejaVuSans-Bold-6c" x="281.689453"/>
     <use xlink:href="#DejaVuSans-Bold-61" x="315.966797"/>
     <use xlink:href="#DejaVuSans-Bold-74" x="383.447266"/>
     <use xlink:href="#DejaVuSans-Bold-65" x="431.25"/>
     <use xlink:href="#DejaVuSans-Bold-64" x="499.072266"/>
     <use xlink:href="#DejaVuSans-Bold-20" x="570.654297"/>
     <use xlink:href="#DejaVuSans-Bold-42" x="605.46875"/>
     <use xlink:href="#DejaVuSans-Bold-4b" x="681.689453"/>
     <use xlink:href="#DejaVuSans-Bold-50" x="759.179688"/>
     <use xlink:href="#DejaVuSans-Bold-79" x="834.345703"/>
     <use xlink:href="#DejaVuSans-Bold-56" x="899.53125"/>
     <use xlink:href="#DejaVuSans-Bold-20" x="976.923828"/>
     <use xlink:href="#DejaVuSans-Bold-50" x="1011.738281"/>
     <use xlink:href="#DejaVuSans-Bold-6c" x="1085.029297"/>
     <use xlink:href="#DejaVuSans-Bold-61" x="1119.306641"/>
     <use xlink:href="#DejaVuSans-Bold-73" x="1186.787109"/>
     <use xlink:href="#DejaVuSans-Bold-6d" x="1246.308594"/>
     <use xlink:href="#DejaVuSans-Bold-61" x="1350.507812"/>
     <use xlink:href="#DejaVuSans-Bold-20" x="1417.988281"/>
     <use xlink:href="#DejaVuSans-Bold-56" x="1452.802734"/>
     <use xlink:href="#DejaVuSans-Bold-69" x="1528.445312"/>
     <use xlink:href="#DejaVuSans-Bold-72" x="1562.722656"/>
     <use xlink:href="#DejaVuSans-Bold-61" x="1612.039062"/>
     <use xlink:href="#DejaVuSans-Bold-6c" x="1679.519531"/>
     <use xlink:href="#DejaVuSans-Bold-20" x="1713.796875"/>
     <use xlink:href="#DejaVuSans-Bold-4c" x="1748.611328"/>
     <use xlink:href="#DejaVuSans-Bold-6f" x="1812.332031"/>
     <use xlink:href="#DejaVuSans-Bold-61" x="1881.033203"/>
     <use xlink:href="#DejaVuSans-Bold-64" x="1948.513672"/>
     <use xlink:href="#DejaVuSans-Bold-20" x="2020.095703"/>
     <use xlink:href="#DejaVuSans-Bold-55" x="2054.910156"/>
     <use xlink:href="#DejaVuSans-Bold-6e" x="2136.111328"/>
     <use xlink:href="#DejaVuSans-Bold-64" x="2207.302734"/>
     <use xlink:href="#DejaVuSans-Bold-65" x="2278.884766"/>
     <use xlink:href="#DejaVuSans-Bold-72" x="2346.707031"/>
     <use xlink:href="#DejaVuSans-Bold-20" x="2396.023438"/>
     <use xlink:href="#DejaVuSans-Bold-44" x="2430.837891"/>
     <use xlink:href="#DejaVuSans-Bold-69" x="2513.845703"/>
     <use xlink:href="#DejaVuSans-Bold-66" x="2548.123047"/>
     <use xlink:href="#DejaVuSans-Bold-66" x="2591.628906"/>
     <use xlink:href="#DejaVuSans-Bold-65" x="2635.134766"/>
     <use xlink:href="#DejaVuSans-Bold-72" x="2702.957031"/>
     <use xlink:href="#DejaVuSans-Bold-65" x="2752.273438"/>
     <use xlink:href="#DejaVuSans-Bold-6e" x="2820.095703"/>
     <use xlink:href="#DejaVuSans-Bold-74" x="2891.287109"/>
     <use xlink:href="#DejaVuSans-Bold-20" x="2939.089844"/>
     <use xlink:href="#DejaVuSans-Bold-49" x="2973.904297"/>
     <use xlink:href="#DejaVuSans-Bold-6d" x="3011.111328"/>
     <use xlink:href="#DejaVuSans-Bold-6d" x="3115.310547"/>
     <use xlink:href="#DejaVuSans-Bold-75" x="3219.509766"/>
     <use xlink:href="#DejaVuSans-Bold-6e" x="3290.701172"/>
     <use xlink:href="#DejaVuSans-Bold-6f" x="3361.892578"/>
     <use xlink:href="#DejaVuSans-Bold-73" x="3430.59375"/>
     <use xlink:href="#DejaVuSans-Bold-75" x="3490.115234"/>
     <use xlink:href="#DejaVuSans-Bold-70" x="3561.306641"/>
     <use xlink:href="#DejaVuSans-Bold-70" x="3632.888672"/>
     <use xlink:href="#DejaVuSans-Bold-72" x="3704.470703"/>
     <use xlink:href="#DejaVuSans-Bold-65" x="3753.787109"/>
     <use xlink:href="#DejaVuSans-Bold-73" x="3821.609375"/>
     <use xlink:href="#DejaVuSans-Bold-73" x="3881.130859"/>
     <use xlink:href="#DejaVuSans-Bold-69" x="3940.652344"/>
     <use xlink:href="#DejaVuSans-Bold-6f" x="3974.929688"/>
     <use xlink:href="#DejaVuSans-Bold-6e" x="4043.630859"/>
     <use xlink:href="#DejaVuSans-Bold-20" x="4114.822266"/>
     <use xlink:href="#DejaVuSans-Bold-52" x="4149.636719"/>
     <use xlink:href="#DejaVuSans-Bold-65" x="4226.638672"/>
     <use xlink:href="#DejaVuSans-Bold-67" x="4294.460938"/>
     <use xlink:href="#DejaVuSans-Bold-69" x="4366.042969"/>
     <use xlink:href="#DejaVuSans-Bold-6d" x="4400.320312"/>
     <use xlink:href="#DejaVuSans-Bold-65" x="4504.519531"/>
     <use xlink:href="#DejaVuSans-Bold-6e" x="4572.341797"/>
     <use xlink:href="#DejaVuSans-Bold-73" x="4643.533203"/>
    </g>
   </g>
   <g id="legend_1">
    <g id="patch_10">
     <path d="M 54.5075 148.584687 
L 287.584063 148.584687 
Q 289.584063 148.584687 289.584063 146.584687 
L 289.584063 44.837812 
Q 289.584063 42.837812 287.584063 42.837812 
L 54.5075 42.837812 
Q 52.5075 42.837812 52.5075 44.837812 
L 52.5075 146.584687 
Q 52.5075 148.584687 54.5075 148.584687 
z
" style="fill: #ffffff; opacity: 0.9; stroke: #cccccc; stroke-linejoin: miter"/>
    </g>
    <g id="line2d_147">
     <path d="M 56.5075 50.93625 
L 66.5075 50.93625 
L 76.5075 50.93625 
" style="fill: none; stroke: #2ecc71; stroke-opacity: 0.8; stroke-width: 2.5; stroke-linecap: square"/>
    </g>
    <g id="text_20">
     <!-- Baseline -->
     <g transform="translate(84.5075 54.43625) scale(0.1 -0.1)">
      <defs>
       <path id="DejaVuSans-42" d="M 1259 2228 
L 1259 519 
L 2272 519 
Q 2781 519 3026 730 
Q 3272 941 3272 1375 
Q 3272 1813 3026 2020 
Q 2781 2228 2272 2228 
L 1259 2228 
z
M 1259 4147 
L 1259 2741 
L 2194 2741 
Q 2656 2741 2882 2914 
Q 3109 3088 3109 3444 
Q 3109 3797 2882 3972 
Q 2656 4147 2194 4147 
L 1259 4147 
z
M 628 4666 
L 2241 4666 
Q 2963 4666 3353 4366 
Q 3744 4066 3744 3513 
Q 3744 3084 3544 2831 
Q 3344 2578 2956 2516 
Q 3422 2416 3680 2098 
Q 3938 1781 3938 1306 
Q 3938 681 3513 340 
Q 3088 0 2303 0 
L 628 0 
L 628 4666 
z
" transform="scale(0.015625)"/>
      </defs>
      <use xlink:href="#DejaVuSans-42"/>
      <use xlink:href="#DejaVuSans-61" x="68.603516"/>
      <use xlink:href="#DejaVuSans-73" x="129.882812"/>
      <use xlink:href="#DejaVuSans-65" x="181.982422"/>
      <use xlink:href="#DejaVuSans-6c" x="243.505859"/>
      <use xlink:href="#DejaVuSans-69" x="271.289062"/>
      <use xlink:href="#DejaVuSans-6e" x="299.072266"/>
      <use xlink:href="#DejaVuSans-65" x="362.451172"/>
     </g>
    </g>
    <g id="line2d_148">
     <path d="M 56.5075 65.614375 
L 66.5075 65.614375 
L 76.5075 65.614375 
" style="fill: none; stroke: #3498db; stroke-opacity: 0.8; stroke-width: 2.5; stroke-linecap: square"/>
    </g>
    <g id="text_21">
     <!-- Infection -->
     <g transform="translate(84.5075 69.114375) scale(0.1 -0.1)">
      <defs>
       <path id="DejaVuSans-49" d="M 628 4666 
L 1259 4666 
L 1259 0 
L 628 0 
L 628 4666 
z
" transform="scale(0.015625)"/>
       <path id="DejaVuSans-66" d="M 2375 4863 
L 2375 4384 
L 1825 4384 
Q 1516 4384 1395 4259 
Q 1275 4134 1275 3809 
L 1275 3500 
L 2222 3500 
L 2222 3053 
L 1275 3053 
L 1275 0 
L 697 0 
L 697 3053 
L 147 3053 
L 147 3500 
L 697 3500 
L 697 3744 
Q 697 4328 969 4595 
Q 1241 4863 1831 4863 
L 2375 4863 
z
" transform="scale(0.015625)"/>
       <path id="DejaVuSans-74" d="M 1172 4494 
L 1172 3500 
L 2356 3500 
L 2356 3053 
L 1172 3053 
L 1172 1153 
Q 1172 725 1289 603 
Q 1406 481 1766 481 
L 2356 481 
L 2356 0 
L 1766 0 
Q 1100 0 847 248 
Q 594 497 594 1153 
L 594 3053 
L 172 3053 
L 172 3500 
L 594 3500 
L 594 4494 
L 1172 4494 
z
" transform="scale(0.015625)"/>
      </defs>
      <use xlink:href="#DejaVuSans-49"/>
      <use xlink:href="#DejaVuSans-6e" x="29.492188"/>
      <use xlink:href="#DejaVuSans-66" x="92.871094"/>
      <use xlink:href="#DejaVuSans-65" x="128.076172"/>
      <use xlink:href="#DejaVuSans-63" x="189.599609"/>
      <use xlink:href="#DejaVuSans-74" x="244.580078"/>
      <use xlink:href="#DejaVuSans-69" x="283.789062"/>
      <use xlink:href="#DejaVuSans-6f" x="311.572266"/>
      <use xlink:href="#DejaVuSans-6e" x="372.753906"/>
     </g>
    </g>
    <g id="line2d_149">
     <path d="M 56.5075 80.2925 
L 66.5075 80.2925 
L 76.5075 80.2925 
" style="fill: none; stroke: #e74c3c; stroke-opacity: 0.8; stroke-width: 2.5; stroke-linecap: square"/>
    </g>
    <g id="text_22">
     <!-- Tacrolimus -->
     <g transform="translate(84.5075 83.7925) scale(0.1 -0.1)">
      <use xlink:href="#DejaVuSans-54"/>
      <use xlink:href="#DejaVuSans-61" x="44.583984"/>
      <use xlink:href="#DejaVuSans-63" x="105.863281"/>
      <use xlink:href="#DejaVuSans-72" x="160.84375"/>
      <use xlink:href="#DejaVuSans-6f" x="199.707031"/>
      <use xlink:href="#DejaVuSans-6c" x="260.888672"/>
      <use xlink:href="#DejaVuSans-69" x="288.671875"/>
      <use xlink:href="#DejaVuSans-6d" x="316.455078"/>
      <use xlink:href="#DejaVuSans-75" x="413.867188"/>
      <use xlink:href="#DejaVuSans-73" x="477.246094"/>
     </g>
    </g>
    <g id="line2d_150">
     <path d="M 56.5075 94.970625 
L 66.5075 94.970625 
L 76.5075 94.970625 
" style="fill: none; stroke: #9b59b6; stroke-opacity: 0.8; stroke-width: 2.5; stroke-linecap: square"/>
    </g>
    <g id="text_23">
     <!-- Sirolimus -->
     <g transform="translate(84.5075 98.470625) scale(0.1 -0.1)">
      <use xlink:href="#DejaVuSans-53"/>
      <use xlink:href="#DejaVuSans-69" x="63.476562"/>
      <use xlink:href="#DejaVuSans-72" x="91.259766"/>
      <use xlink:href="#DejaVuSans-6f" x="130.123047"/>
      <use xlink:href="#DejaVuSans-6c" x="191.304688"/>
      <use xlink:href="#DejaVuSans-69" x="219.087891"/>
      <use xlink:href="#DejaVuSans-6d" x="246.871094"/>
      <use xlink:href="#DejaVuSans-75" x="344.283203"/>
      <use xlink:href="#DejaVuSans-73" x="407.662109"/>
     </g>
    </g>
    <g id="line2d_151">
     <path d="M 56.5075 109.64875 
L 66.5075 109.64875 
L 76.5075 109.64875 
" style="fill: none; stroke-dasharray: 7.4,3.2; stroke-dashoffset: 0; stroke: #ffa500; stroke-opacity: 0.7; stroke-width: 2"/>
    </g>
    <g id="text_24">
     <!-- Screening threshold (1,000 copies/mL) -->
     <g transform="translate(84.5075 113.14875) scale(0.1 -0.1)">
      <defs>
       <path id="DejaVuSans-67" d="M 2906 1791 
Q 2906 2416 2648 2759 
Q 2391 3103 1925 3103 
Q 1463 3103 1205 2759 
Q 947 2416 947 1791 
Q 947 1169 1205 825 
Q 1463 481 1925 481 
Q 2391 481 2648 825 
Q 2906 1169 2906 1791 
z
M 3481 434 
Q 3481 -459 3084 -895 
Q 2688 -1331 1869 -1331 
Q 1566 -1331 1297 -1286 
Q 1028 -1241 775 -1147 
L 775 -588 
Q 1028 -725 1275 -790 
Q 1522 -856 1778 -856 
Q 2344 -856 2625 -561 
Q 2906 -266 2906 331 
L 2906 616 
Q 2728 306 2450 153 
Q 2172 0 1784 0 
Q 1141 0 747 490 
Q 353 981 353 1791 
Q 353 2603 747 3093 
Q 1141 3584 1784 3584 
Q 2172 3584 2450 3431 
Q 2728 3278 2906 2969 
L 2906 3500 
L 3481 3500 
L 3481 434 
z
" transform="scale(0.015625)"/>
       <path id="DejaVuSans-68" d="M 3513 2113 
L 3513 0 
L 2938 0 
L 2938 2094 
Q 2938 2591 2744 2837 
Q 2550 3084 2163 3084 
Q 1697 3084 1428 2787 
Q 1159 2491 1159 1978 
L 1159 0 
L 581 0 
L 581 4863 
L 1159 4863 
L 1159 2956 
Q 1366 3272 1645 3428 
Q 1925 3584 2291 3584 
Q 2894 3584 3203 3211 
Q 3513 2838 3513 2113 
z
" transform="scale(0.015625)"/>
       <path id="DejaVuSans-64" d="M 2906 2969 
L 2906 4863 
L 3481 4863 
L 3481 0 
L 2906 0 
L 2906 525 
Q 2725 213 2448 61 
Q 2172 -91 1784 -91 
Q 1150 -91 751 415 
Q 353 922 353 1747 
Q 353 2572 751 3078 
Q 1150 3584 1784 3584 
Q 2172 3584 2448 3432 
Q 2725 3281 2906 2969 
z
M 947 1747 
Q 947 1113 1208 752 
Q 1469 391 1925 391 
Q 2381 391 2643 752 
Q 2906 1113 2906 1747 
Q 2906 2381 2643 2742 
Q 2381 3103 1925 3103 
Q 1469 3103 1208 2742 
Q 947 2381 947 1747 
z
" transform="scale(0.015625)"/>
       <path id="DejaVuSans-28" d="M 1984 4856 
Q 1566 4138 1362 3434 
Q 1159 2731 1159 2009 
Q 1159 1288 1364 580 
Q 1569 -128 1984 -844 
L 1484 -844 
Q 1016 -109 783 600 
Q 550 1309 550 2009 
Q 550 2706 781 3412 
Q 1013 4119 1484 4856 
L 1984 4856 
z
" transform="scale(0.015625)"/>
       <path id="DejaVuSans-2c" d="M 750 794 
L 1409 794 
L 1409 256 
L 897 -744 
L 494 -744 
L 750 256 
L 750 794 
z
" transform="scale(0.015625)"/>
       <path id="DejaVuSans-2f" d="M 1625 4666 
L 2156 4666 
L 531 -594 
L 0 -594 
L 1625 4666 
z
" transform="scale(0.015625)"/>
       <path id="DejaVuSans-4c" d="M 628 4666 
L 1259 4666 
L 1259 531 
L 3531 531 
L 3531 0 
L 628 0 
L 628 4666 
z
" transform="scale(0.015625)"/>
       <path id="DejaVuSans-29" d="M 513 4856 
L 1013 4856 
Q 1481 4119 1714 3412 
Q 1947 2706 1947 2009 
Q 1947 1309 1714 600 
Q 1481 -109 1013 -844 
L 513 -844 
Q 928 -128 1133 580 
Q 1338 1288 1338 2009 
Q 1338 2731 1133 3434 
Q 928 4138 513 4856 
z
" transform="scale(0.015625)"/>
      </defs>
      <use xlink:href="#DejaVuSans-53"/>
      <use xlink:href="#DejaVuSans-63" x="63.476562"/>
      <use xlink:href="#DejaVuSans-72" x="118.457031"/>
      <use xlink:href="#DejaVuSans-65" x="157.320312"/>
      <use xlink:href="#DejaVuSans-65" x="218.84375"/>
      <use xlink:href="#DejaVuSans-6e" x="280.367188"/>
      <use xlink:href="#DejaVuSans-69" x="343.746094"/>
      <use xlink:href="#DejaVuSans-6e" x="371.529297"/>
      <use xlink:href="#DejaVuSans-67" x="434.908203"/>
      <use xlink:href="#DejaVuSans-20" x="498.384766"/>
      <use xlink:href="#DejaVuSans-74" x="530.171875"/>
      <use xlink:href="#DejaVuSans-68" x="569.380859"/>
      <use xlink:href="#DejaVuSans-72" x="632.759766"/>
      <use xlink:href="#DejaVuSans-65" x="671.623047"/>
      <use xlink:href="#DejaVuSans-73" x="733.146484"/>
      <use xlink:href="#DejaVuSans-68" x="785.246094"/>
      <use xlink:href="#DejaVuSans-6f" x="848.625"/>
      <use xlink:href="#DejaVuSans-6c" x="909.806641"/>
      <use xlink:href="#DejaVuSans-64" x="937.589844"/>
      <use xlink:href="#DejaVuSans-20" x="1001.066406"/>
      <use xlink:href="#DejaVuSans-28" x="1032.853516"/>
      <use xlink:href="#DejaVuSans-31" x="1071.867188"/>
      <use xlink:href="#DejaVuSans-2c" x="1135.490234"/>
      <use xlink:href="#DejaVuSans-30" x="1167.277344"/>
      <use xlink:href="#DejaVuSans-30" x="1230.900391"/>
      <use xlink:href="#DejaVuSans-30" x="1294.523438"/>
      <use xlink:href="#DejaVuSans-20" x="1358.146484"/>
      <use xlink:href="#DejaVuSans-63" x="1389.933594"/>
      <use xlink:href="#DejaVuSans-6f" x="1444.914062"/>
      <use xlink:href="#DejaVuSans-70" x="1506.095703"/>
      <use xlink:href="#DejaVuSans-69" x="1569.572266"/>
      <use xlink:href="#DejaVuSans-65" x="1597.355469"/>
      <use xlink:href="#DejaVuSans-73" x="1658.878906"/>
      <use xlink:href="#DejaVuSans-2f" x="1710.978516"/>
      <use xlink:href="#DejaVuSans-6d" x="1744.669922"/>
      <use xlink:href="#DejaVuSans-4c" x="1842.082031"/>
      <use xlink:href="#DejaVuSans-29" x="1897.794922"/>
     </g>
    </g>
    <g id="line2d_152">
     <path d="M 56.5075 124.326875 
L 66.5075 124.326875 
L 76.5075 124.326875 
" style="fill: none; stroke-dasharray: 7.4,3.2; stroke-dashoffset: 0; stroke: #ff0000; stroke-opacity: 0.7; stroke-width: 2"/>
    </g>
    <g id="text_25">
     <!-- Treatment threshold (10,000 copies/mL) -->
     <g transform="translate(84.5075 127.826875) scale(0.1 -0.1)">
      <use xlink:href="#DejaVuSans-54"/>
      <use xlink:href="#DejaVuSans-72" x="46.333984"/>
      <use xlink:href="#DejaVuSans-65" x="85.197266"/>
      <use xlink:href="#DejaVuSans-61" x="146.720703"/>
      <use xlink:href="#DejaVuSans-74" x="208"/>
      <use xlink:href="#DejaVuSans-6d" x="247.208984"/>
      <use xlink:href="#DejaVuSans-65" x="344.621094"/>
      <use xlink:href="#DejaVuSans-6e" x="406.144531"/>
      <use xlink:href="#DejaVuSans-74" x="469.523438"/>
      <use xlink:href="#DejaVuSans-20" x="508.732422"/>
      <use xlink:href="#DejaVuSans-74" x="540.519531"/>
      <use xlink:href="#DejaVuSans-68" x="579.728516"/>
      <use xlink:href="#DejaVuSans-72" x="643.107422"/>
      <use xlink:href="#DejaVuSans-65" x="681.970703"/>
      <use xlink:href="#DejaVuSans-73" x="743.494141"/>
      <use xlink:href="#DejaVuSans-68" x="795.59375"/>
      <use xlink:href="#DejaVuSans-6f" x="858.972656"/>
      <use xlink:href="#DejaVuSans-6c" x="920.154297"/>
      <use xlink:href="#DejaVuSans-64" x="947.9375"/>
      <use xlink:href="#DejaVuSans-20" x="1011.414062"/>
      <use xlink:href="#DejaVuSans-28" x="1043.201172"/>
      <use xlink:href="#DejaVuSans-31" x="1082.214844"/>
      <use xlink:href="#DejaVuSans-30" x="1145.837891"/>
      <use xlink:href="#DejaVuSans-2c" x="1209.460938"/>
      <use xlink:href="#DejaVuSans-30" x="1241.248047"/>
      <use xlink:href="#DejaVuSans-30" x="1304.871094"/>
      <use xlink:href="#DejaVuSans-30" x="1368.494141"/>
      <use xlink:href="#DejaVuSans-20" x="1432.117188"/>
      <use xlink:href="#DejaVuSans-63" x="1463.904297"/>
      <use xlink:href="#DejaVuSans-6f" x="1518.884766"/>
      <use xlink:href="#DejaVuSans-70" x="1580.066406"/>
      <use xlink:href="#DejaVuSans-69" x="1643.542969"/>
      <use xlink:href="#DejaVuSans-65" x="1671.326172"/>
      <use xlink:href="#DejaVuSans-73" x="1732.849609"/>
      <use xlink:href="#DejaVuSans-2f" x="1784.949219"/>
      <use xlink:href="#DejaVuSans-6d" x="1818.640625"/>
      <use xlink:href="#DejaVuSans-4c" x="1916.052734"/>
      <use xlink:href="#DejaVuSans-29" x="1971.765625"/>
     </g>
    </g>
    <g id="patch_11">
     <path d="M 56.5075 142.505 
L 76.5075 142.505 
L 76.5075 135.505 
L 56.5075 135.505 
z
" style="fill: #ff0000; opacity: 0.15; stroke: #ff0000; stroke-linejoin: miter"/>
    </g>
    <g id="text_26">
     <!-- High risk zone -->
     <g transform="translate(84.5075 142.505) scale(0.1 -0.1)">
      <defs>
       <path id="DejaVuSans-48" d="M 628 4666 
L 1259 4666 
L 1259 2753 
L 3553 2753 
L 3553 4666 
L 4184 4666 
L 4184 0 
L 3553 0 
L 3553 2222 
L 1259 2222 
L 1259 0 
L 628 0 
L 628 4666 
z
" transform="scale(0.015625)"/>
       <path id="DejaVuSans-7a" d="M 353 3500 
L 3084 3500 
L 3084 2975 
L 922 459 
L 3084 459 
L 3084 0 
L 275 0 
L 275 525 
L 2438 3041 
L 353 3041 
L 353 3500 
z
" transform="scale(0.015625)"/>
      </defs>
      <use xlink:href="#DejaVuSans-48"/>
      <use xlink:href="#DejaVuSans-69" x="75.195312"/>
      <use xlink:href="#DejaVuSans-67" x="102.978516"/>
      <use xlink:href="#DejaVuSans-68" x="166.455078"/>
      <use xlink:href="#DejaVuSans-20" x="229.833984"/>
      <use xlink:href="#DejaVuSans-72" x="261.621094"/>
      <use xlink:href="#DejaVuSans-69" x="302.734375"/>
      <use xlink:href="#DejaVuSans-73" x="330.517578"/>
      <use xlink:href="#DejaVuSans-6b" x="382.617188"/>
      <use xlink:href="#DejaVuSans-20" x="440.527344"/>
      <use xlink:href="#DejaVuSans-7a" x="472.314453"/>
      <use xlink:href="#DejaVuSans-6f" x="524.804688"/>
      <use xlink:href="#DejaVuSans-6e" x="585.986328"/>
      <use xlink:href="#DejaVuSans-65" x="649.365234"/>
     </g>
    </g>
   </g>
  </g>
 </g>
 <defs>
  <clipPath id="p73872a28cc">
   <rect x="47.5075" y="37.837812" width="802.514928" height="491.24"/>
  </clipPath>
 </defs>
</svg>
